<?xml version="1.0" encoding="utf-8"?>
<svg xmlns="http://www.w3.org/2000/svg" xmlns:xlink="http://www.w3.org/1999/xlink" width="600" height="400" viewBox="0 0 2400 1600">
<defs>
  <clipPath id="clip730">
    <rect x="0" y="0" width="2400" height="1600"/>
  </clipPath>
</defs>
<path clip-path="url(#clip730)" d="M0 1600 L2400 1600 L2400 0 L0 0  Z" fill="#ffffff" fill-rule="evenodd" fill-opacity="1"/>
<defs>
  <clipPath id="clip731">
    <rect x="112" y="47" width="2242" height="1440"/>
  </clipPath>
</defs>
<path clip-path="url(#clip730)" d="M249.542 1198.65 L1176.41 1198.65 L1176.41 271.776 L249.542 271.776  Z" fill="#ffffff" fill-rule="evenodd" fill-opacity="1"/>
<defs>
  <clipPath id="clip732">
    <rect x="249" y="271" width="928" height="928"/>
  </clipPath>
</defs>
<polyline clip-path="url(#clip730)" style="stroke:#000000; stroke-linecap:round; stroke-linejoin:round; stroke-width:4; stroke-opacity:1; fill:none" points="249.542,1198.65 1176.41,1198.65 "/>
<polyline clip-path="url(#clip730)" style="stroke:#000000; stroke-linecap:round; stroke-linejoin:round; stroke-width:4; stroke-opacity:1; fill:none" points="291.673,1198.65 291.673,1185.92 "/>
<polyline clip-path="url(#clip730)" style="stroke:#000000; stroke-linecap:round; stroke-linejoin:round; stroke-width:4; stroke-opacity:1; fill:none" points="502.325,1198.65 502.325,1185.92 "/>
<polyline clip-path="url(#clip730)" style="stroke:#000000; stroke-linecap:round; stroke-linejoin:round; stroke-width:4; stroke-opacity:1; fill:none" points="712.978,1198.65 712.978,1185.92 "/>
<polyline clip-path="url(#clip730)" style="stroke:#000000; stroke-linecap:round; stroke-linejoin:round; stroke-width:4; stroke-opacity:1; fill:none" points="923.63,1198.65 923.63,1185.92 "/>
<polyline clip-path="url(#clip730)" style="stroke:#000000; stroke-linecap:round; stroke-linejoin:round; stroke-width:4; stroke-opacity:1; fill:none" points="1134.28,1198.65 1134.28,1185.92 "/>
<path clip-path="url(#clip730)" d="M253.976 1229.57 Q250.365 1229.57 248.536 1233.13 Q246.731 1236.67 246.731 1243.8 Q246.731 1250.91 248.536 1254.47 Q250.365 1258.02 253.976 1258.02 Q257.61 1258.02 259.416 1254.47 Q261.244 1250.91 261.244 1243.8 Q261.244 1236.67 259.416 1233.13 Q257.61 1229.57 253.976 1229.57 M253.976 1225.86 Q259.786 1225.86 262.842 1230.47 Q265.92 1235.05 265.92 1243.8 Q265.92 1252.53 262.842 1257.14 Q259.786 1261.72 253.976 1261.72 Q248.166 1261.72 245.087 1257.14 Q242.032 1252.53 242.032 1243.8 Q242.032 1235.05 245.087 1230.47 Q248.166 1225.86 253.976 1225.86 Z" fill="#000000" fill-rule="nonzero" fill-opacity="1" /><path clip-path="url(#clip730)" d="M274.138 1255.17 L279.022 1255.17 L279.022 1261.05 L274.138 1261.05 L274.138 1255.17 Z" fill="#000000" fill-rule="nonzero" fill-opacity="1" /><path clip-path="url(#clip730)" d="M299.207 1229.57 Q295.596 1229.57 293.767 1233.13 Q291.962 1236.67 291.962 1243.8 Q291.962 1250.91 293.767 1254.47 Q295.596 1258.02 299.207 1258.02 Q302.841 1258.02 304.647 1254.47 Q306.476 1250.91 306.476 1243.8 Q306.476 1236.67 304.647 1233.13 Q302.841 1229.57 299.207 1229.57 M299.207 1225.86 Q305.017 1225.86 308.073 1230.47 Q311.152 1235.05 311.152 1243.8 Q311.152 1252.53 308.073 1257.14 Q305.017 1261.72 299.207 1261.72 Q293.397 1261.72 290.318 1257.14 Q287.263 1252.53 287.263 1243.8 Q287.263 1235.05 290.318 1230.47 Q293.397 1225.86 299.207 1225.86 Z" fill="#000000" fill-rule="nonzero" fill-opacity="1" /><path clip-path="url(#clip730)" d="M329.369 1229.57 Q325.758 1229.57 323.929 1233.13 Q322.124 1236.67 322.124 1243.8 Q322.124 1250.91 323.929 1254.47 Q325.758 1258.02 329.369 1258.02 Q333.003 1258.02 334.809 1254.47 Q336.638 1250.91 336.638 1243.8 Q336.638 1236.67 334.809 1233.13 Q333.003 1229.57 329.369 1229.57 M329.369 1225.86 Q335.179 1225.86 338.235 1230.47 Q341.313 1235.05 341.313 1243.8 Q341.313 1252.53 338.235 1257.14 Q335.179 1261.72 329.369 1261.72 Q323.559 1261.72 320.48 1257.14 Q317.425 1252.53 317.425 1243.8 Q317.425 1235.05 320.48 1230.47 Q323.559 1225.86 329.369 1225.86 Z" fill="#000000" fill-rule="nonzero" fill-opacity="1" /><path clip-path="url(#clip730)" d="M465.126 1229.57 Q461.515 1229.57 459.686 1233.13 Q457.881 1236.67 457.881 1243.8 Q457.881 1250.91 459.686 1254.47 Q461.515 1258.02 465.126 1258.02 Q468.76 1258.02 470.566 1254.47 Q472.395 1250.91 472.395 1243.8 Q472.395 1236.67 470.566 1233.13 Q468.76 1229.57 465.126 1229.57 M465.126 1225.86 Q470.936 1225.86 473.992 1230.47 Q477.071 1235.05 477.071 1243.8 Q477.071 1252.53 473.992 1257.14 Q470.936 1261.72 465.126 1261.72 Q459.316 1261.72 456.237 1257.14 Q453.182 1252.53 453.182 1243.8 Q453.182 1235.05 456.237 1230.47 Q459.316 1225.86 465.126 1225.86 Z" fill="#000000" fill-rule="nonzero" fill-opacity="1" /><path clip-path="url(#clip730)" d="M485.288 1255.17 L490.172 1255.17 L490.172 1261.05 L485.288 1261.05 L485.288 1255.17 Z" fill="#000000" fill-rule="nonzero" fill-opacity="1" /><path clip-path="url(#clip730)" d="M504.385 1257.11 L520.705 1257.11 L520.705 1261.05 L498.76 1261.05 L498.76 1257.11 Q501.422 1254.36 506.006 1249.73 Q510.612 1245.08 511.793 1243.73 Q514.038 1241.21 514.918 1239.47 Q515.82 1237.71 515.82 1236.02 Q515.82 1233.27 513.876 1231.53 Q511.955 1229.8 508.853 1229.8 Q506.654 1229.8 504.2 1230.56 Q501.77 1231.33 498.992 1232.88 L498.992 1228.15 Q501.816 1227.02 504.27 1226.44 Q506.723 1225.86 508.76 1225.86 Q514.131 1225.86 517.325 1228.55 Q520.519 1231.23 520.519 1235.72 Q520.519 1237.85 519.709 1239.77 Q518.922 1241.67 516.816 1244.27 Q516.237 1244.94 513.135 1248.15 Q510.033 1251.35 504.385 1257.11 Z" fill="#000000" fill-rule="nonzero" fill-opacity="1" /><path clip-path="url(#clip730)" d="M530.566 1226.49 L548.922 1226.49 L548.922 1230.42 L534.848 1230.42 L534.848 1238.89 Q535.867 1238.55 536.885 1238.39 Q537.904 1238.2 538.922 1238.2 Q544.709 1238.2 548.089 1241.37 Q551.468 1244.54 551.468 1249.96 Q551.468 1255.54 547.996 1258.64 Q544.524 1261.72 538.205 1261.72 Q536.029 1261.72 533.76 1261.35 Q531.515 1260.98 529.107 1260.24 L529.107 1255.54 Q531.191 1256.67 533.413 1257.23 Q535.635 1257.78 538.112 1257.78 Q542.117 1257.78 544.454 1255.68 Q546.792 1253.57 546.792 1249.96 Q546.792 1246.35 544.454 1244.24 Q542.117 1242.14 538.112 1242.14 Q536.237 1242.14 534.362 1242.55 Q532.51 1242.97 530.566 1243.85 L530.566 1226.49 Z" fill="#000000" fill-rule="nonzero" fill-opacity="1" /><path clip-path="url(#clip730)" d="M675.281 1229.57 Q671.67 1229.57 669.841 1233.13 Q668.036 1236.67 668.036 1243.8 Q668.036 1250.91 669.841 1254.47 Q671.67 1258.02 675.281 1258.02 Q678.915 1258.02 680.721 1254.47 Q682.55 1250.91 682.55 1243.8 Q682.55 1236.67 680.721 1233.13 Q678.915 1229.57 675.281 1229.57 M675.281 1225.86 Q681.091 1225.86 684.147 1230.47 Q687.225 1235.05 687.225 1243.8 Q687.225 1252.53 684.147 1257.14 Q681.091 1261.72 675.281 1261.72 Q669.471 1261.72 666.392 1257.14 Q663.337 1252.53 663.337 1243.8 Q663.337 1235.05 666.392 1230.47 Q669.471 1225.86 675.281 1225.86 Z" fill="#000000" fill-rule="nonzero" fill-opacity="1" /><path clip-path="url(#clip730)" d="M695.443 1255.17 L700.327 1255.17 L700.327 1261.05 L695.443 1261.05 L695.443 1255.17 Z" fill="#000000" fill-rule="nonzero" fill-opacity="1" /><path clip-path="url(#clip730)" d="M710.559 1226.49 L728.915 1226.49 L728.915 1230.42 L714.841 1230.42 L714.841 1238.89 Q715.86 1238.55 716.878 1238.39 Q717.897 1238.2 718.915 1238.2 Q724.702 1238.2 728.082 1241.37 Q731.461 1244.54 731.461 1249.96 Q731.461 1255.54 727.989 1258.64 Q724.517 1261.72 718.197 1261.72 Q716.022 1261.72 713.753 1261.35 Q711.508 1260.98 709.1 1260.24 L709.1 1255.54 Q711.184 1256.67 713.406 1257.23 Q715.628 1257.78 718.105 1257.78 Q722.11 1257.78 724.447 1255.68 Q726.785 1253.57 726.785 1249.96 Q726.785 1246.35 724.447 1244.24 Q722.11 1242.14 718.105 1242.14 Q716.23 1242.14 714.355 1242.55 Q712.503 1242.97 710.559 1243.85 L710.559 1226.49 Z" fill="#000000" fill-rule="nonzero" fill-opacity="1" /><path clip-path="url(#clip730)" d="M750.674 1229.57 Q747.063 1229.57 745.234 1233.13 Q743.429 1236.67 743.429 1243.8 Q743.429 1250.91 745.234 1254.47 Q747.063 1258.02 750.674 1258.02 Q754.308 1258.02 756.114 1254.47 Q757.943 1250.91 757.943 1243.8 Q757.943 1236.67 756.114 1233.13 Q754.308 1229.57 750.674 1229.57 M750.674 1225.86 Q756.484 1225.86 759.54 1230.47 Q762.619 1235.05 762.619 1243.8 Q762.619 1252.53 759.54 1257.14 Q756.484 1261.72 750.674 1261.72 Q744.864 1261.72 741.785 1257.14 Q738.73 1252.53 738.73 1243.8 Q738.73 1235.05 741.785 1230.47 Q744.864 1225.86 750.674 1225.86 Z" fill="#000000" fill-rule="nonzero" fill-opacity="1" /><path clip-path="url(#clip730)" d="M886.431 1229.57 Q882.82 1229.57 880.991 1233.13 Q879.186 1236.67 879.186 1243.8 Q879.186 1250.91 880.991 1254.47 Q882.82 1258.02 886.431 1258.02 Q890.066 1258.02 891.871 1254.47 Q893.7 1250.91 893.7 1243.8 Q893.7 1236.67 891.871 1233.13 Q890.066 1229.57 886.431 1229.57 M886.431 1225.86 Q892.241 1225.86 895.297 1230.47 Q898.376 1235.05 898.376 1243.8 Q898.376 1252.53 895.297 1257.14 Q892.241 1261.72 886.431 1261.72 Q880.621 1261.72 877.542 1257.14 Q874.487 1252.53 874.487 1243.8 Q874.487 1235.05 877.542 1230.47 Q880.621 1225.86 886.431 1225.86 Z" fill="#000000" fill-rule="nonzero" fill-opacity="1" /><path clip-path="url(#clip730)" d="M906.593 1255.17 L911.477 1255.17 L911.477 1261.05 L906.593 1261.05 L906.593 1255.17 Z" fill="#000000" fill-rule="nonzero" fill-opacity="1" /><path clip-path="url(#clip730)" d="M920.482 1226.49 L942.704 1226.49 L942.704 1228.48 L930.158 1261.05 L925.274 1261.05 L937.079 1230.42 L920.482 1230.42 L920.482 1226.49 Z" fill="#000000" fill-rule="nonzero" fill-opacity="1" /><path clip-path="url(#clip730)" d="M951.871 1226.49 L970.227 1226.49 L970.227 1230.42 L956.153 1230.42 L956.153 1238.89 Q957.172 1238.55 958.19 1238.39 Q959.209 1238.2 960.227 1238.2 Q966.014 1238.2 969.394 1241.37 Q972.773 1244.54 972.773 1249.96 Q972.773 1255.54 969.301 1258.64 Q965.829 1261.72 959.51 1261.72 Q957.334 1261.72 955.065 1261.35 Q952.82 1260.98 950.412 1260.24 L950.412 1255.54 Q952.496 1256.67 954.718 1257.23 Q956.94 1257.78 959.417 1257.78 Q963.422 1257.78 965.76 1255.68 Q968.097 1253.57 968.097 1249.96 Q968.097 1246.35 965.76 1244.24 Q963.422 1242.14 959.417 1242.14 Q957.542 1242.14 955.667 1242.55 Q953.815 1242.97 951.871 1243.85 L951.871 1226.49 Z" fill="#000000" fill-rule="nonzero" fill-opacity="1" /><path clip-path="url(#clip730)" d="M1086.35 1257.11 L1093.99 1257.11 L1093.99 1230.75 L1085.68 1232.41 L1085.68 1228.15 L1093.95 1226.49 L1098.62 1226.49 L1098.62 1257.11 L1106.26 1257.11 L1106.26 1261.05 L1086.35 1261.05 L1086.35 1257.11 Z" fill="#000000" fill-rule="nonzero" fill-opacity="1" /><path clip-path="url(#clip730)" d="M1115.71 1255.17 L1120.59 1255.17 L1120.59 1261.05 L1115.71 1261.05 L1115.71 1255.17 Z" fill="#000000" fill-rule="nonzero" fill-opacity="1" /><path clip-path="url(#clip730)" d="M1140.78 1229.57 Q1137.16 1229.57 1135.34 1233.13 Q1133.53 1236.67 1133.53 1243.8 Q1133.53 1250.91 1135.34 1254.47 Q1137.16 1258.02 1140.78 1258.02 Q1144.41 1258.02 1146.22 1254.47 Q1148.04 1250.91 1148.04 1243.8 Q1148.04 1236.67 1146.22 1233.13 Q1144.41 1229.57 1140.78 1229.57 M1140.78 1225.86 Q1146.59 1225.86 1149.64 1230.47 Q1152.72 1235.05 1152.72 1243.8 Q1152.72 1252.53 1149.64 1257.14 Q1146.59 1261.72 1140.78 1261.72 Q1134.97 1261.72 1131.89 1257.14 Q1128.83 1252.53 1128.83 1243.8 Q1128.83 1235.05 1131.89 1230.47 Q1134.97 1225.86 1140.78 1225.86 Z" fill="#000000" fill-rule="nonzero" fill-opacity="1" /><path clip-path="url(#clip730)" d="M1170.94 1229.57 Q1167.33 1229.57 1165.5 1233.13 Q1163.69 1236.67 1163.69 1243.8 Q1163.69 1250.91 1165.5 1254.47 Q1167.33 1258.02 1170.94 1258.02 Q1174.57 1258.02 1176.38 1254.47 Q1178.21 1250.91 1178.21 1243.8 Q1178.21 1236.67 1176.38 1233.13 Q1174.57 1229.57 1170.94 1229.57 M1170.94 1225.86 Q1176.75 1225.86 1179.8 1230.47 Q1182.88 1235.05 1182.88 1243.8 Q1182.88 1252.53 1179.8 1257.14 Q1176.75 1261.72 1170.94 1261.72 Q1165.13 1261.72 1162.05 1257.14 Q1158.99 1252.53 1158.99 1243.8 Q1158.99 1235.05 1162.05 1230.47 Q1165.13 1225.86 1170.94 1225.86 Z" fill="#000000" fill-rule="nonzero" fill-opacity="1" /><path clip-path="url(#clip730)" d="M717.243 1307.86 L704.352 1325.21 L717.911 1343.51 L711.004 1343.51 L700.628 1329.51 L690.252 1343.51 L683.345 1343.51 L697.191 1324.86 L684.523 1307.86 L691.43 1307.86 L700.883 1320.56 L710.336 1307.86 L717.243 1307.86 Z" fill="#000000" fill-rule="nonzero" fill-opacity="1" /><path clip-path="url(#clip730)" d="M725.009 1340.01 L731.502 1340.01 L731.502 1320.56 L724.404 1321.87 L724.404 1318.18 L731.725 1316.93 L736.085 1316.93 L736.085 1340.01 L742.61 1340.01 L742.61 1343.51 L725.009 1343.51 L725.009 1340.01 Z" fill="#000000" fill-rule="nonzero" fill-opacity="1" /><polyline clip-path="url(#clip730)" style="stroke:#000000; stroke-linecap:round; stroke-linejoin:round; stroke-width:4; stroke-opacity:1; fill:none" points="249.542,1198.65 249.542,271.776 "/>
<polyline clip-path="url(#clip730)" style="stroke:#000000; stroke-linecap:round; stroke-linejoin:round; stroke-width:4; stroke-opacity:1; fill:none" points="249.542,1156.52 268.44,1156.52 "/>
<polyline clip-path="url(#clip730)" style="stroke:#000000; stroke-linecap:round; stroke-linejoin:round; stroke-width:4; stroke-opacity:1; fill:none" points="249.542,945.865 268.44,945.865 "/>
<polyline clip-path="url(#clip730)" style="stroke:#000000; stroke-linecap:round; stroke-linejoin:round; stroke-width:4; stroke-opacity:1; fill:none" points="249.542,735.212 268.44,735.212 "/>
<polyline clip-path="url(#clip730)" style="stroke:#000000; stroke-linecap:round; stroke-linejoin:round; stroke-width:4; stroke-opacity:1; fill:none" points="249.542,524.559 268.44,524.559 "/>
<polyline clip-path="url(#clip730)" style="stroke:#000000; stroke-linecap:round; stroke-linejoin:round; stroke-width:4; stroke-opacity:1; fill:none" points="249.542,313.907 268.44,313.907 "/>
<path clip-path="url(#clip730)" d="M126.205 1142.32 Q122.593 1142.32 120.765 1145.88 Q118.959 1149.42 118.959 1156.55 Q118.959 1163.66 120.765 1167.22 Q122.593 1170.76 126.205 1170.76 Q129.839 1170.76 131.644 1167.22 Q133.473 1163.66 133.473 1156.55 Q133.473 1149.42 131.644 1145.88 Q129.839 1142.32 126.205 1142.32 M126.205 1138.61 Q132.015 1138.61 135.07 1143.22 Q138.149 1147.8 138.149 1156.55 Q138.149 1165.28 135.07 1169.89 Q132.015 1174.47 126.205 1174.47 Q120.394 1174.47 117.316 1169.89 Q114.26 1165.28 114.26 1156.55 Q114.26 1147.8 117.316 1143.22 Q120.394 1138.61 126.205 1138.61 Z" fill="#000000" fill-rule="nonzero" fill-opacity="1" /><path clip-path="url(#clip730)" d="M146.366 1167.92 L151.251 1167.92 L151.251 1173.8 L146.366 1173.8 L146.366 1167.92 Z" fill="#000000" fill-rule="nonzero" fill-opacity="1" /><path clip-path="url(#clip730)" d="M171.436 1142.32 Q167.825 1142.32 165.996 1145.88 Q164.19 1149.42 164.19 1156.55 Q164.19 1163.66 165.996 1167.22 Q167.825 1170.76 171.436 1170.76 Q175.07 1170.76 176.876 1167.22 Q178.704 1163.66 178.704 1156.55 Q178.704 1149.42 176.876 1145.88 Q175.07 1142.32 171.436 1142.32 M171.436 1138.61 Q177.246 1138.61 180.301 1143.22 Q183.38 1147.8 183.38 1156.55 Q183.38 1165.28 180.301 1169.89 Q177.246 1174.47 171.436 1174.47 Q165.626 1174.47 162.547 1169.89 Q159.491 1165.28 159.491 1156.55 Q159.491 1147.8 162.547 1143.22 Q165.626 1138.61 171.436 1138.61 Z" fill="#000000" fill-rule="nonzero" fill-opacity="1" /><path clip-path="url(#clip730)" d="M201.598 1142.32 Q197.987 1142.32 196.158 1145.88 Q194.352 1149.42 194.352 1156.55 Q194.352 1163.66 196.158 1167.22 Q197.987 1170.76 201.598 1170.76 Q205.232 1170.76 207.037 1167.22 Q208.866 1163.66 208.866 1156.55 Q208.866 1149.42 207.037 1145.88 Q205.232 1142.32 201.598 1142.32 M201.598 1138.61 Q207.408 1138.61 210.463 1143.22 Q213.542 1147.8 213.542 1156.55 Q213.542 1165.28 210.463 1169.89 Q207.408 1174.47 201.598 1174.47 Q195.787 1174.47 192.709 1169.89 Q189.653 1165.28 189.653 1156.55 Q189.653 1147.8 192.709 1143.22 Q195.787 1138.61 201.598 1138.61 Z" fill="#000000" fill-rule="nonzero" fill-opacity="1" /><path clip-path="url(#clip730)" d="M127.2 931.663 Q123.589 931.663 121.76 935.228 Q119.955 938.77 119.955 945.899 Q119.955 953.006 121.76 956.57 Q123.589 960.112 127.2 960.112 Q130.834 960.112 132.64 956.57 Q134.468 953.006 134.468 945.899 Q134.468 938.77 132.64 935.228 Q130.834 931.663 127.2 931.663 M127.2 927.96 Q133.01 927.96 136.066 932.566 Q139.144 937.149 139.144 945.899 Q139.144 954.626 136.066 959.232 Q133.01 963.816 127.2 963.816 Q121.39 963.816 118.311 959.232 Q115.256 954.626 115.256 945.899 Q115.256 937.149 118.311 932.566 Q121.39 927.96 127.2 927.96 Z" fill="#000000" fill-rule="nonzero" fill-opacity="1" /><path clip-path="url(#clip730)" d="M147.362 957.265 L152.246 957.265 L152.246 963.145 L147.362 963.145 L147.362 957.265 Z" fill="#000000" fill-rule="nonzero" fill-opacity="1" /><path clip-path="url(#clip730)" d="M166.459 959.209 L182.778 959.209 L182.778 963.145 L160.834 963.145 L160.834 959.209 Q163.496 956.455 168.079 951.825 Q172.686 947.172 173.866 945.83 Q176.112 943.307 176.991 941.571 Q177.894 939.811 177.894 938.121 Q177.894 935.367 175.95 933.631 Q174.028 931.895 170.927 931.895 Q168.727 931.895 166.274 932.659 Q163.843 933.422 161.065 934.973 L161.065 930.251 Q163.89 929.117 166.343 928.538 Q168.797 927.96 170.834 927.96 Q176.204 927.96 179.399 930.645 Q182.593 933.33 182.593 937.821 Q182.593 939.95 181.783 941.871 Q180.996 943.77 178.889 946.362 Q178.311 947.033 175.209 950.251 Q172.107 953.445 166.459 959.209 Z" fill="#000000" fill-rule="nonzero" fill-opacity="1" /><path clip-path="url(#clip730)" d="M192.639 928.585 L210.996 928.585 L210.996 932.52 L196.922 932.52 L196.922 940.992 Q197.94 940.645 198.959 940.483 Q199.977 940.297 200.996 940.297 Q206.783 940.297 210.162 943.469 Q213.542 946.64 213.542 952.057 Q213.542 957.635 210.07 960.737 Q206.598 963.816 200.278 963.816 Q198.102 963.816 195.834 963.445 Q193.588 963.075 191.181 962.334 L191.181 957.635 Q193.264 958.77 195.487 959.325 Q197.709 959.881 200.186 959.881 Q204.19 959.881 206.528 957.774 Q208.866 955.668 208.866 952.057 Q208.866 948.446 206.528 946.339 Q204.19 944.233 200.186 944.233 Q198.311 944.233 196.436 944.649 Q194.584 945.066 192.639 945.946 L192.639 928.585 Z" fill="#000000" fill-rule="nonzero" fill-opacity="1" /><path clip-path="url(#clip730)" d="M126.205 721.011 Q122.593 721.011 120.765 724.575 Q118.959 728.117 118.959 735.247 Q118.959 742.353 120.765 745.918 Q122.593 749.46 126.205 749.46 Q129.839 749.46 131.644 745.918 Q133.473 742.353 133.473 735.247 Q133.473 728.117 131.644 724.575 Q129.839 721.011 126.205 721.011 M126.205 717.307 Q132.015 717.307 135.07 721.913 Q138.149 726.497 138.149 735.247 Q138.149 743.973 135.07 748.58 Q132.015 753.163 126.205 753.163 Q120.394 753.163 117.316 748.58 Q114.26 743.973 114.26 735.247 Q114.26 726.497 117.316 721.913 Q120.394 717.307 126.205 717.307 Z" fill="#000000" fill-rule="nonzero" fill-opacity="1" /><path clip-path="url(#clip730)" d="M146.366 746.612 L151.251 746.612 L151.251 752.492 L146.366 752.492 L146.366 746.612 Z" fill="#000000" fill-rule="nonzero" fill-opacity="1" /><path clip-path="url(#clip730)" d="M161.482 717.932 L179.839 717.932 L179.839 721.867 L165.765 721.867 L165.765 730.339 Q166.783 729.992 167.802 729.83 Q168.82 729.645 169.839 729.645 Q175.626 729.645 179.005 732.816 Q182.385 735.987 182.385 741.404 Q182.385 746.983 178.913 750.085 Q175.44 753.163 169.121 753.163 Q166.945 753.163 164.677 752.793 Q162.431 752.423 160.024 751.682 L160.024 746.983 Q162.107 748.117 164.329 748.673 Q166.552 749.228 169.028 749.228 Q173.033 749.228 175.371 747.122 Q177.709 745.015 177.709 741.404 Q177.709 737.793 175.371 735.687 Q173.033 733.58 169.028 733.58 Q167.153 733.58 165.278 733.997 Q163.427 734.413 161.482 735.293 L161.482 717.932 Z" fill="#000000" fill-rule="nonzero" fill-opacity="1" /><path clip-path="url(#clip730)" d="M201.598 721.011 Q197.987 721.011 196.158 724.575 Q194.352 728.117 194.352 735.247 Q194.352 742.353 196.158 745.918 Q197.987 749.46 201.598 749.46 Q205.232 749.46 207.037 745.918 Q208.866 742.353 208.866 735.247 Q208.866 728.117 207.037 724.575 Q205.232 721.011 201.598 721.011 M201.598 717.307 Q207.408 717.307 210.463 721.913 Q213.542 726.497 213.542 735.247 Q213.542 743.973 210.463 748.58 Q207.408 753.163 201.598 753.163 Q195.787 753.163 192.709 748.58 Q189.653 743.973 189.653 735.247 Q189.653 726.497 192.709 721.913 Q195.787 717.307 201.598 717.307 Z" fill="#000000" fill-rule="nonzero" fill-opacity="1" /><path clip-path="url(#clip730)" d="M127.2 510.358 Q123.589 510.358 121.76 513.923 Q119.955 517.465 119.955 524.594 Q119.955 531.701 121.76 535.265 Q123.589 538.807 127.2 538.807 Q130.834 538.807 132.64 535.265 Q134.468 531.701 134.468 524.594 Q134.468 517.465 132.64 513.923 Q130.834 510.358 127.2 510.358 M127.2 506.654 Q133.01 506.654 136.066 511.261 Q139.144 515.844 139.144 524.594 Q139.144 533.321 136.066 537.927 Q133.01 542.511 127.2 542.511 Q121.39 542.511 118.311 537.927 Q115.256 533.321 115.256 524.594 Q115.256 515.844 118.311 511.261 Q121.39 506.654 127.2 506.654 Z" fill="#000000" fill-rule="nonzero" fill-opacity="1" /><path clip-path="url(#clip730)" d="M147.362 535.96 L152.246 535.96 L152.246 541.839 L147.362 541.839 L147.362 535.96 Z" fill="#000000" fill-rule="nonzero" fill-opacity="1" /><path clip-path="url(#clip730)" d="M161.251 507.279 L183.473 507.279 L183.473 509.27 L170.927 541.839 L166.042 541.839 L177.848 511.215 L161.251 511.215 L161.251 507.279 Z" fill="#000000" fill-rule="nonzero" fill-opacity="1" /><path clip-path="url(#clip730)" d="M192.639 507.279 L210.996 507.279 L210.996 511.215 L196.922 511.215 L196.922 519.687 Q197.94 519.34 198.959 519.178 Q199.977 518.992 200.996 518.992 Q206.783 518.992 210.162 522.164 Q213.542 525.335 213.542 530.752 Q213.542 536.33 210.07 539.432 Q206.598 542.511 200.278 542.511 Q198.102 542.511 195.834 542.14 Q193.588 541.77 191.181 541.029 L191.181 536.33 Q193.264 537.464 195.487 538.02 Q197.709 538.576 200.186 538.576 Q204.19 538.576 206.528 536.469 Q208.866 534.363 208.866 530.752 Q208.866 527.14 206.528 525.034 Q204.19 522.927 200.186 522.927 Q198.311 522.927 196.436 523.344 Q194.584 523.761 192.639 524.64 L192.639 507.279 Z" fill="#000000" fill-rule="nonzero" fill-opacity="1" /><path clip-path="url(#clip730)" d="M117.015 327.252 L124.654 327.252 L124.654 300.886 L116.343 302.553 L116.343 298.294 L124.607 296.627 L129.283 296.627 L129.283 327.252 L136.922 327.252 L136.922 331.187 L117.015 331.187 L117.015 327.252 Z" fill="#000000" fill-rule="nonzero" fill-opacity="1" /><path clip-path="url(#clip730)" d="M146.366 325.307 L151.251 325.307 L151.251 331.187 L146.366 331.187 L146.366 325.307 Z" fill="#000000" fill-rule="nonzero" fill-opacity="1" /><path clip-path="url(#clip730)" d="M171.436 299.706 Q167.825 299.706 165.996 303.27 Q164.19 306.812 164.19 313.942 Q164.19 321.048 165.996 324.613 Q167.825 328.155 171.436 328.155 Q175.07 328.155 176.876 324.613 Q178.704 321.048 178.704 313.942 Q178.704 306.812 176.876 303.27 Q175.07 299.706 171.436 299.706 M171.436 296.002 Q177.246 296.002 180.301 300.608 Q183.38 305.192 183.38 313.942 Q183.38 322.668 180.301 327.275 Q177.246 331.858 171.436 331.858 Q165.626 331.858 162.547 327.275 Q159.491 322.668 159.491 313.942 Q159.491 305.192 162.547 300.608 Q165.626 296.002 171.436 296.002 Z" fill="#000000" fill-rule="nonzero" fill-opacity="1" /><path clip-path="url(#clip730)" d="M201.598 299.706 Q197.987 299.706 196.158 303.27 Q194.352 306.812 194.352 313.942 Q194.352 321.048 196.158 324.613 Q197.987 328.155 201.598 328.155 Q205.232 328.155 207.037 324.613 Q208.866 321.048 208.866 313.942 Q208.866 306.812 207.037 303.27 Q205.232 299.706 201.598 299.706 M201.598 296.002 Q207.408 296.002 210.463 300.608 Q213.542 305.192 213.542 313.942 Q213.542 322.668 210.463 327.275 Q207.408 331.858 201.598 331.858 Q195.787 331.858 192.709 327.275 Q189.653 322.668 189.653 313.942 Q189.653 305.192 192.709 300.608 Q195.787 296.002 201.598 296.002 Z" fill="#000000" fill-rule="nonzero" fill-opacity="1" /><path clip-path="url(#clip730)" d="M28.3562 730.676 L45.7028 743.567 L64.0042 730.008 L64.0042 736.915 L49.9996 747.291 L64.0042 757.667 L64.0042 764.574 L45.3526 750.728 L28.3562 763.396 L28.3562 756.489 L41.0558 747.036 L28.3562 737.583 L28.3562 730.676 Z" fill="#000000" fill-rule="nonzero" fill-opacity="1" /><path clip-path="url(#clip730)" d="M60.3757 719.345 L60.3757 705.85 L64.0042 705.85 L64.0042 724.884 L60.503 724.884 Q59.5163 723.801 57.7339 721.796 Q48.0262 710.847 45.0344 710.847 Q42.9337 710.847 41.6605 712.502 Q40.3556 714.157 40.3556 716.863 Q40.3556 718.518 40.9285 720.459 Q41.4696 722.401 42.5836 724.693 L38.6686 724.693 Q37.7774 722.242 37.3318 720.141 Q36.8862 718.009 36.8862 716.194 Q36.8862 711.579 38.9869 708.81 Q41.0876 706.041 44.5251 706.041 Q48.9493 706.041 57.9886 716.576 Q59.5163 718.359 60.3757 719.345 Z" fill="#000000" fill-rule="nonzero" fill-opacity="1" /><circle clip-path="url(#clip732)" cx="291.673" cy="1156.52" r="28.8" fill="#009af9" fill-rule="evenodd" fill-opacity="1" stroke="none"/>
<circle clip-path="url(#clip732)" cx="1134.28" cy="1156.52" r="28.8" fill="#009af9" fill-rule="evenodd" fill-opacity="1" stroke="none"/>
<circle clip-path="url(#clip732)" cx="291.673" cy="313.907" r="28.8" fill="#009af9" fill-rule="evenodd" fill-opacity="1" stroke="none"/>
<circle clip-path="url(#clip732)" cx="1134.28" cy="313.907" r="28.8" fill="#009af9" fill-rule="evenodd" fill-opacity="1" stroke="none"/>
<circle clip-path="url(#clip732)" cx="712.978" cy="1156.52" r="25.2" fill="#e26f46" fill-rule="evenodd" fill-opacity="1" stroke="none"/>
<circle clip-path="url(#clip732)" cx="712.978" cy="313.907" r="25.2" fill="#e26f46" fill-rule="evenodd" fill-opacity="1" stroke="none"/>
<circle clip-path="url(#clip732)" cx="291.673" cy="735.212" r="25.2" fill="#e26f46" fill-rule="evenodd" fill-opacity="1" stroke="none"/>
<circle clip-path="url(#clip732)" cx="1134.28" cy="735.212" r="25.2" fill="#e26f46" fill-rule="evenodd" fill-opacity="1" stroke="none"/>
<circle clip-path="url(#clip732)" cx="502.325" cy="1156.52" r="21.6" fill="#3da44d" fill-rule="evenodd" fill-opacity="1" stroke="none"/>
<circle clip-path="url(#clip732)" cx="923.63" cy="1156.52" r="21.6" fill="#3da44d" fill-rule="evenodd" fill-opacity="1" stroke="none"/>
<circle clip-path="url(#clip732)" cx="502.325" cy="313.907" r="21.6" fill="#3da44d" fill-rule="evenodd" fill-opacity="1" stroke="none"/>
<circle clip-path="url(#clip732)" cx="923.63" cy="313.907" r="21.6" fill="#3da44d" fill-rule="evenodd" fill-opacity="1" stroke="none"/>
<circle clip-path="url(#clip732)" cx="712.978" cy="735.212" r="21.6" fill="#3da44d" fill-rule="evenodd" fill-opacity="1" stroke="none"/>
<circle clip-path="url(#clip732)" cx="291.673" cy="945.865" r="21.6" fill="#3da44d" fill-rule="evenodd" fill-opacity="1" stroke="none"/>
<circle clip-path="url(#clip732)" cx="1134.28" cy="945.865" r="21.6" fill="#3da44d" fill-rule="evenodd" fill-opacity="1" stroke="none"/>
<circle clip-path="url(#clip732)" cx="291.673" cy="524.559" r="21.6" fill="#3da44d" fill-rule="evenodd" fill-opacity="1" stroke="none"/>
<circle clip-path="url(#clip732)" cx="1134.28" cy="524.559" r="21.6" fill="#3da44d" fill-rule="evenodd" fill-opacity="1" stroke="none"/>
<circle clip-path="url(#clip732)" cx="396.999" cy="1156.52" r="18" fill="#c271d2" fill-rule="evenodd" fill-opacity="1" stroke="none"/>
<circle clip-path="url(#clip732)" cx="607.651" cy="1156.52" r="18" fill="#c271d2" fill-rule="evenodd" fill-opacity="1" stroke="none"/>
<circle clip-path="url(#clip732)" cx="818.304" cy="1156.52" r="18" fill="#c271d2" fill-rule="evenodd" fill-opacity="1" stroke="none"/>
<circle clip-path="url(#clip732)" cx="1028.96" cy="1156.52" r="18" fill="#c271d2" fill-rule="evenodd" fill-opacity="1" stroke="none"/>
<circle clip-path="url(#clip732)" cx="396.999" cy="313.907" r="18" fill="#c271d2" fill-rule="evenodd" fill-opacity="1" stroke="none"/>
<circle clip-path="url(#clip732)" cx="607.651" cy="313.907" r="18" fill="#c271d2" fill-rule="evenodd" fill-opacity="1" stroke="none"/>
<circle clip-path="url(#clip732)" cx="818.304" cy="313.907" r="18" fill="#c271d2" fill-rule="evenodd" fill-opacity="1" stroke="none"/>
<circle clip-path="url(#clip732)" cx="1028.96" cy="313.907" r="18" fill="#c271d2" fill-rule="evenodd" fill-opacity="1" stroke="none"/>
<circle clip-path="url(#clip732)" cx="502.325" cy="735.212" r="18" fill="#c271d2" fill-rule="evenodd" fill-opacity="1" stroke="none"/>
<circle clip-path="url(#clip732)" cx="923.63" cy="735.212" r="18" fill="#c271d2" fill-rule="evenodd" fill-opacity="1" stroke="none"/>
<circle clip-path="url(#clip732)" cx="712.978" cy="945.865" r="18" fill="#c271d2" fill-rule="evenodd" fill-opacity="1" stroke="none"/>
<circle clip-path="url(#clip732)" cx="712.978" cy="524.559" r="18" fill="#c271d2" fill-rule="evenodd" fill-opacity="1" stroke="none"/>
<circle clip-path="url(#clip732)" cx="291.673" cy="1051.19" r="18" fill="#c271d2" fill-rule="evenodd" fill-opacity="1" stroke="none"/>
<circle clip-path="url(#clip732)" cx="1134.28" cy="1051.19" r="18" fill="#c271d2" fill-rule="evenodd" fill-opacity="1" stroke="none"/>
<circle clip-path="url(#clip732)" cx="291.673" cy="840.538" r="18" fill="#c271d2" fill-rule="evenodd" fill-opacity="1" stroke="none"/>
<circle clip-path="url(#clip732)" cx="1134.28" cy="840.538" r="18" fill="#c271d2" fill-rule="evenodd" fill-opacity="1" stroke="none"/>
<circle clip-path="url(#clip732)" cx="291.673" cy="629.886" r="18" fill="#c271d2" fill-rule="evenodd" fill-opacity="1" stroke="none"/>
<circle clip-path="url(#clip732)" cx="1134.28" cy="629.886" r="18" fill="#c271d2" fill-rule="evenodd" fill-opacity="1" stroke="none"/>
<circle clip-path="url(#clip732)" cx="291.673" cy="419.233" r="18" fill="#c271d2" fill-rule="evenodd" fill-opacity="1" stroke="none"/>
<circle clip-path="url(#clip732)" cx="1134.28" cy="419.233" r="18" fill="#c271d2" fill-rule="evenodd" fill-opacity="1" stroke="none"/>
<circle clip-path="url(#clip732)" cx="344.336" cy="1156.52" r="14.4" fill="#ac8d18" fill-rule="evenodd" fill-opacity="1" stroke="none"/>
<circle clip-path="url(#clip732)" cx="449.662" cy="1156.52" r="14.4" fill="#ac8d18" fill-rule="evenodd" fill-opacity="1" stroke="none"/>
<circle clip-path="url(#clip732)" cx="554.988" cy="1156.52" r="14.4" fill="#ac8d18" fill-rule="evenodd" fill-opacity="1" stroke="none"/>
<circle clip-path="url(#clip732)" cx="660.314" cy="1156.52" r="14.4" fill="#ac8d18" fill-rule="evenodd" fill-opacity="1" stroke="none"/>
<circle clip-path="url(#clip732)" cx="765.641" cy="1156.52" r="14.4" fill="#ac8d18" fill-rule="evenodd" fill-opacity="1" stroke="none"/>
<circle clip-path="url(#clip732)" cx="870.967" cy="1156.52" r="14.4" fill="#ac8d18" fill-rule="evenodd" fill-opacity="1" stroke="none"/>
<circle clip-path="url(#clip732)" cx="976.293" cy="1156.52" r="14.4" fill="#ac8d18" fill-rule="evenodd" fill-opacity="1" stroke="none"/>
<circle clip-path="url(#clip732)" cx="1081.62" cy="1156.52" r="14.4" fill="#ac8d18" fill-rule="evenodd" fill-opacity="1" stroke="none"/>
<circle clip-path="url(#clip732)" cx="344.336" cy="313.907" r="14.4" fill="#ac8d18" fill-rule="evenodd" fill-opacity="1" stroke="none"/>
<circle clip-path="url(#clip732)" cx="449.662" cy="313.907" r="14.4" fill="#ac8d18" fill-rule="evenodd" fill-opacity="1" stroke="none"/>
<circle clip-path="url(#clip732)" cx="554.988" cy="313.907" r="14.4" fill="#ac8d18" fill-rule="evenodd" fill-opacity="1" stroke="none"/>
<circle clip-path="url(#clip732)" cx="660.314" cy="313.907" r="14.4" fill="#ac8d18" fill-rule="evenodd" fill-opacity="1" stroke="none"/>
<circle clip-path="url(#clip732)" cx="765.641" cy="313.907" r="14.4" fill="#ac8d18" fill-rule="evenodd" fill-opacity="1" stroke="none"/>
<circle clip-path="url(#clip732)" cx="870.967" cy="313.907" r="14.4" fill="#ac8d18" fill-rule="evenodd" fill-opacity="1" stroke="none"/>
<circle clip-path="url(#clip732)" cx="976.293" cy="313.907" r="14.4" fill="#ac8d18" fill-rule="evenodd" fill-opacity="1" stroke="none"/>
<circle clip-path="url(#clip732)" cx="1081.62" cy="313.907" r="14.4" fill="#ac8d18" fill-rule="evenodd" fill-opacity="1" stroke="none"/>
<circle clip-path="url(#clip732)" cx="396.999" cy="735.212" r="14.4" fill="#ac8d18" fill-rule="evenodd" fill-opacity="1" stroke="none"/>
<circle clip-path="url(#clip732)" cx="607.651" cy="735.212" r="14.4" fill="#ac8d18" fill-rule="evenodd" fill-opacity="1" stroke="none"/>
<circle clip-path="url(#clip732)" cx="818.304" cy="735.212" r="14.4" fill="#ac8d18" fill-rule="evenodd" fill-opacity="1" stroke="none"/>
<circle clip-path="url(#clip732)" cx="1028.96" cy="735.212" r="14.4" fill="#ac8d18" fill-rule="evenodd" fill-opacity="1" stroke="none"/>
<circle clip-path="url(#clip732)" cx="502.325" cy="945.865" r="14.4" fill="#ac8d18" fill-rule="evenodd" fill-opacity="1" stroke="none"/>
<circle clip-path="url(#clip732)" cx="923.63" cy="945.865" r="14.4" fill="#ac8d18" fill-rule="evenodd" fill-opacity="1" stroke="none"/>
<circle clip-path="url(#clip732)" cx="502.325" cy="524.559" r="14.4" fill="#ac8d18" fill-rule="evenodd" fill-opacity="1" stroke="none"/>
<circle clip-path="url(#clip732)" cx="923.63" cy="524.559" r="14.4" fill="#ac8d18" fill-rule="evenodd" fill-opacity="1" stroke="none"/>
<circle clip-path="url(#clip732)" cx="712.978" cy="1051.19" r="14.4" fill="#ac8d18" fill-rule="evenodd" fill-opacity="1" stroke="none"/>
<circle clip-path="url(#clip732)" cx="712.978" cy="840.538" r="14.4" fill="#ac8d18" fill-rule="evenodd" fill-opacity="1" stroke="none"/>
<circle clip-path="url(#clip732)" cx="712.978" cy="629.886" r="14.4" fill="#ac8d18" fill-rule="evenodd" fill-opacity="1" stroke="none"/>
<circle clip-path="url(#clip732)" cx="712.978" cy="419.233" r="14.4" fill="#ac8d18" fill-rule="evenodd" fill-opacity="1" stroke="none"/>
<circle clip-path="url(#clip732)" cx="291.673" cy="1103.85" r="14.4" fill="#ac8d18" fill-rule="evenodd" fill-opacity="1" stroke="none"/>
<circle clip-path="url(#clip732)" cx="1134.28" cy="1103.85" r="14.4" fill="#ac8d18" fill-rule="evenodd" fill-opacity="1" stroke="none"/>
<circle clip-path="url(#clip732)" cx="291.673" cy="998.528" r="14.4" fill="#ac8d18" fill-rule="evenodd" fill-opacity="1" stroke="none"/>
<circle clip-path="url(#clip732)" cx="1134.28" cy="998.528" r="14.4" fill="#ac8d18" fill-rule="evenodd" fill-opacity="1" stroke="none"/>
<circle clip-path="url(#clip732)" cx="291.673" cy="893.201" r="14.4" fill="#ac8d18" fill-rule="evenodd" fill-opacity="1" stroke="none"/>
<circle clip-path="url(#clip732)" cx="1134.28" cy="893.201" r="14.4" fill="#ac8d18" fill-rule="evenodd" fill-opacity="1" stroke="none"/>
<circle clip-path="url(#clip732)" cx="291.673" cy="787.875" r="14.4" fill="#ac8d18" fill-rule="evenodd" fill-opacity="1" stroke="none"/>
<circle clip-path="url(#clip732)" cx="1134.28" cy="787.875" r="14.4" fill="#ac8d18" fill-rule="evenodd" fill-opacity="1" stroke="none"/>
<circle clip-path="url(#clip732)" cx="291.673" cy="682.549" r="14.4" fill="#ac8d18" fill-rule="evenodd" fill-opacity="1" stroke="none"/>
<circle clip-path="url(#clip732)" cx="1134.28" cy="682.549" r="14.4" fill="#ac8d18" fill-rule="evenodd" fill-opacity="1" stroke="none"/>
<circle clip-path="url(#clip732)" cx="291.673" cy="577.223" r="14.4" fill="#ac8d18" fill-rule="evenodd" fill-opacity="1" stroke="none"/>
<circle clip-path="url(#clip732)" cx="1134.28" cy="577.223" r="14.4" fill="#ac8d18" fill-rule="evenodd" fill-opacity="1" stroke="none"/>
<circle clip-path="url(#clip732)" cx="291.673" cy="471.896" r="14.4" fill="#ac8d18" fill-rule="evenodd" fill-opacity="1" stroke="none"/>
<circle clip-path="url(#clip732)" cx="1134.28" cy="471.896" r="14.4" fill="#ac8d18" fill-rule="evenodd" fill-opacity="1" stroke="none"/>
<circle clip-path="url(#clip732)" cx="291.673" cy="366.57" r="14.4" fill="#ac8d18" fill-rule="evenodd" fill-opacity="1" stroke="none"/>
<circle clip-path="url(#clip732)" cx="1134.28" cy="366.57" r="14.4" fill="#ac8d18" fill-rule="evenodd" fill-opacity="1" stroke="none"/>
<path clip-path="url(#clip730)" d="M1425.88 1198.65 L2352.76 1198.65 L2352.76 271.776 L1425.88 271.776  Z" fill="#ffffff" fill-rule="evenodd" fill-opacity="1"/>
<defs>
  <clipPath id="clip733">
    <rect x="1425" y="271" width="928" height="928"/>
  </clipPath>
</defs>
<polyline clip-path="url(#clip730)" style="stroke:#000000; stroke-linecap:round; stroke-linejoin:round; stroke-width:4; stroke-opacity:1; fill:none" points="1425.88,1198.65 2352.76,1198.65 "/>
<polyline clip-path="url(#clip730)" style="stroke:#000000; stroke-linecap:round; stroke-linejoin:round; stroke-width:4; stroke-opacity:1; fill:none" points="1468.02,1198.65 1468.02,1185.92 "/>
<polyline clip-path="url(#clip730)" style="stroke:#000000; stroke-linecap:round; stroke-linejoin:round; stroke-width:4; stroke-opacity:1; fill:none" points="1731.33,1198.65 1731.33,1185.92 "/>
<polyline clip-path="url(#clip730)" style="stroke:#000000; stroke-linecap:round; stroke-linejoin:round; stroke-width:4; stroke-opacity:1; fill:none" points="1994.65,1198.65 1994.65,1185.92 "/>
<polyline clip-path="url(#clip730)" style="stroke:#000000; stroke-linecap:round; stroke-linejoin:round; stroke-width:4; stroke-opacity:1; fill:none" points="2257.96,1198.65 2257.96,1185.92 "/>
<path clip-path="url(#clip730)" d="M1468.02 1229.57 Q1464.4 1229.57 1462.58 1233.13 Q1460.77 1236.67 1460.77 1243.8 Q1460.77 1250.91 1462.58 1254.47 Q1464.4 1258.02 1468.02 1258.02 Q1471.65 1258.02 1473.46 1254.47 Q1475.28 1250.91 1475.28 1243.8 Q1475.28 1236.67 1473.46 1233.13 Q1471.65 1229.57 1468.02 1229.57 M1468.02 1225.86 Q1473.83 1225.86 1476.88 1230.47 Q1479.96 1235.05 1479.96 1243.8 Q1479.96 1252.53 1476.88 1257.14 Q1473.83 1261.72 1468.02 1261.72 Q1462.21 1261.72 1459.13 1257.14 Q1456.07 1252.53 1456.07 1243.8 Q1456.07 1235.05 1459.13 1230.47 Q1462.21 1225.86 1468.02 1225.86 Z" fill="#000000" fill-rule="nonzero" fill-opacity="1" /><path clip-path="url(#clip730)" d="M1721.61 1226.49 L1739.97 1226.49 L1739.97 1230.42 L1725.89 1230.42 L1725.89 1238.89 Q1726.91 1238.55 1727.93 1238.39 Q1728.95 1238.2 1729.97 1238.2 Q1735.75 1238.2 1739.13 1241.37 Q1742.51 1244.54 1742.51 1249.96 Q1742.51 1255.54 1739.04 1258.64 Q1735.57 1261.72 1729.25 1261.72 Q1727.07 1261.72 1724.8 1261.35 Q1722.56 1260.98 1720.15 1260.24 L1720.15 1255.54 Q1722.23 1256.67 1724.46 1257.23 Q1726.68 1257.78 1729.16 1257.78 Q1733.16 1257.78 1735.5 1255.68 Q1737.84 1253.57 1737.84 1249.96 Q1737.84 1246.35 1735.5 1244.24 Q1733.16 1242.14 1729.16 1242.14 Q1727.28 1242.14 1725.41 1242.55 Q1723.55 1242.97 1721.61 1243.85 L1721.61 1226.49 Z" fill="#000000" fill-rule="nonzero" fill-opacity="1" /><path clip-path="url(#clip730)" d="M1969.33 1257.11 L1976.97 1257.11 L1976.97 1230.75 L1968.66 1232.41 L1968.66 1228.15 L1976.93 1226.49 L1981.6 1226.49 L1981.6 1257.11 L1989.24 1257.11 L1989.24 1261.05 L1969.33 1261.05 L1969.33 1257.11 Z" fill="#000000" fill-rule="nonzero" fill-opacity="1" /><path clip-path="url(#clip730)" d="M2008.69 1229.57 Q2005.07 1229.57 2003.25 1233.13 Q2001.44 1236.67 2001.44 1243.8 Q2001.44 1250.91 2003.25 1254.47 Q2005.07 1258.02 2008.69 1258.02 Q2012.32 1258.02 2014.13 1254.47 Q2015.95 1250.91 2015.95 1243.8 Q2015.95 1236.67 2014.13 1233.13 Q2012.32 1229.57 2008.69 1229.57 M2008.69 1225.86 Q2014.5 1225.86 2017.55 1230.47 Q2020.63 1235.05 2020.63 1243.8 Q2020.63 1252.53 2017.55 1257.14 Q2014.5 1261.72 2008.69 1261.72 Q2002.88 1261.72 1999.8 1257.14 Q1996.74 1252.53 1996.74 1243.8 Q1996.74 1235.05 1999.8 1230.47 Q2002.88 1225.86 2008.69 1225.86 Z" fill="#000000" fill-rule="nonzero" fill-opacity="1" /><path clip-path="url(#clip730)" d="M2233.15 1257.11 L2240.79 1257.11 L2240.79 1230.75 L2232.48 1232.41 L2232.48 1228.15 L2240.74 1226.49 L2245.42 1226.49 L2245.42 1257.11 L2253.05 1257.11 L2253.05 1261.05 L2233.15 1261.05 L2233.15 1257.11 Z" fill="#000000" fill-rule="nonzero" fill-opacity="1" /><path clip-path="url(#clip730)" d="M2262.55 1226.49 L2280.9 1226.49 L2280.9 1230.42 L2266.83 1230.42 L2266.83 1238.89 Q2267.85 1238.55 2268.86 1238.39 Q2269.88 1238.2 2270.9 1238.2 Q2276.69 1238.2 2280.07 1241.37 Q2283.45 1244.54 2283.45 1249.96 Q2283.45 1255.54 2279.98 1258.64 Q2276.5 1261.72 2270.18 1261.72 Q2268.01 1261.72 2265.74 1261.35 Q2263.49 1260.98 2261.09 1260.24 L2261.09 1255.54 Q2263.17 1256.67 2265.39 1257.23 Q2267.61 1257.78 2270.09 1257.78 Q2274.1 1257.78 2276.43 1255.68 Q2278.77 1253.57 2278.77 1249.96 Q2278.77 1246.35 2276.43 1244.24 Q2274.1 1242.14 2270.09 1242.14 Q2268.22 1242.14 2266.34 1242.55 Q2264.49 1242.97 2262.55 1243.85 L2262.55 1226.49 Z" fill="#000000" fill-rule="nonzero" fill-opacity="1" /><path clip-path="url(#clip730)" d="M1875.71 1307.86 L1881.57 1307.86 L1881.57 1344.15 Q1881.57 1350.96 1878.96 1354.01 Q1876.38 1357.07 1870.62 1357.07 L1868.39 1357.07 L1868.39 1352.11 L1869.95 1352.11 Q1873.29 1352.11 1874.5 1350.55 Q1875.71 1349.02 1875.71 1344.15 L1875.71 1307.86 M1875.71 1293.99 L1881.57 1293.99 L1881.57 1301.4 L1875.71 1301.4 L1875.71 1293.99 Z" fill="#000000" fill-rule="nonzero" fill-opacity="1" /><path clip-path="url(#clip730)" d="M1892.65 1340.01 L1899.14 1340.01 L1899.14 1320.56 L1892.04 1321.87 L1892.04 1318.18 L1899.36 1316.93 L1903.72 1316.93 L1903.72 1340.01 L1910.25 1340.01 L1910.25 1343.51 L1892.65 1343.51 L1892.65 1340.01 Z" fill="#000000" fill-rule="nonzero" fill-opacity="1" /><polyline clip-path="url(#clip730)" style="stroke:#000000; stroke-linecap:round; stroke-linejoin:round; stroke-width:4; stroke-opacity:1; fill:none" points="1425.88,1198.65 1425.88,271.776 "/>
<polyline clip-path="url(#clip730)" style="stroke:#000000; stroke-linecap:round; stroke-linejoin:round; stroke-width:4; stroke-opacity:1; fill:none" points="1425.88,1156.52 1444.78,1156.52 "/>
<polyline clip-path="url(#clip730)" style="stroke:#000000; stroke-linecap:round; stroke-linejoin:round; stroke-width:4; stroke-opacity:1; fill:none" points="1425.88,893.201 1444.78,893.201 "/>
<polyline clip-path="url(#clip730)" style="stroke:#000000; stroke-linecap:round; stroke-linejoin:round; stroke-width:4; stroke-opacity:1; fill:none" points="1425.88,629.886 1444.78,629.886 "/>
<polyline clip-path="url(#clip730)" style="stroke:#000000; stroke-linecap:round; stroke-linejoin:round; stroke-width:4; stroke-opacity:1; fill:none" points="1425.88,366.57 1444.78,366.57 "/>
<path clip-path="url(#clip730)" d="M1377.94 1142.32 Q1374.33 1142.32 1372.5 1145.88 Q1370.7 1149.42 1370.7 1156.55 Q1370.7 1163.66 1372.5 1167.22 Q1374.33 1170.76 1377.94 1170.76 Q1381.57 1170.76 1383.38 1167.22 Q1385.21 1163.66 1385.21 1156.55 Q1385.21 1149.42 1383.38 1145.88 Q1381.57 1142.32 1377.94 1142.32 M1377.94 1138.61 Q1383.75 1138.61 1386.81 1143.22 Q1389.88 1147.8 1389.88 1156.55 Q1389.88 1165.28 1386.81 1169.89 Q1383.75 1174.47 1377.94 1174.47 Q1372.13 1174.47 1369.05 1169.89 Q1366 1165.28 1366 1156.55 Q1366 1147.8 1369.05 1143.22 Q1372.13 1138.61 1377.94 1138.61 Z" fill="#000000" fill-rule="nonzero" fill-opacity="1" /><path clip-path="url(#clip730)" d="M1368.98 875.921 L1387.34 875.921 L1387.34 879.857 L1373.26 879.857 L1373.26 888.329 Q1374.28 887.981 1375.3 887.819 Q1376.32 887.634 1377.34 887.634 Q1383.13 887.634 1386.51 890.806 Q1389.88 893.977 1389.88 899.393 Q1389.88 904.972 1386.41 908.074 Q1382.94 911.153 1376.62 911.153 Q1374.45 911.153 1372.18 910.782 Q1369.93 910.412 1367.52 909.671 L1367.52 904.972 Q1369.61 906.106 1371.83 906.662 Q1374.05 907.217 1376.53 907.217 Q1380.53 907.217 1382.87 905.111 Q1385.21 903.005 1385.21 899.393 Q1385.21 895.782 1382.87 893.676 Q1380.53 891.569 1376.53 891.569 Q1374.65 891.569 1372.78 891.986 Q1370.93 892.403 1368.98 893.282 L1368.98 875.921 Z" fill="#000000" fill-rule="nonzero" fill-opacity="1" /><path clip-path="url(#clip730)" d="M1338.59 643.231 L1346.23 643.231 L1346.23 616.865 L1337.92 618.532 L1337.92 614.272 L1346.18 612.606 L1350.86 612.606 L1350.86 643.231 L1358.5 643.231 L1358.5 647.166 L1338.59 647.166 L1338.59 643.231 Z" fill="#000000" fill-rule="nonzero" fill-opacity="1" /><path clip-path="url(#clip730)" d="M1377.94 615.684 Q1374.33 615.684 1372.5 619.249 Q1370.7 622.791 1370.7 629.92 Q1370.7 637.027 1372.5 640.592 Q1374.33 644.133 1377.94 644.133 Q1381.57 644.133 1383.38 640.592 Q1385.21 637.027 1385.21 629.92 Q1385.21 622.791 1383.38 619.249 Q1381.57 615.684 1377.94 615.684 M1377.94 611.981 Q1383.75 611.981 1386.81 616.587 Q1389.88 621.17 1389.88 629.92 Q1389.88 638.647 1386.81 643.254 Q1383.75 647.837 1377.94 647.837 Q1372.13 647.837 1369.05 643.254 Q1366 638.647 1366 629.92 Q1366 621.17 1369.05 616.587 Q1372.13 611.981 1377.94 611.981 Z" fill="#000000" fill-rule="nonzero" fill-opacity="1" /><path clip-path="url(#clip730)" d="M1339.58 379.915 L1347.22 379.915 L1347.22 353.549 L1338.91 355.216 L1338.91 350.957 L1347.18 349.29 L1351.85 349.29 L1351.85 379.915 L1359.49 379.915 L1359.49 383.85 L1339.58 383.85 L1339.58 379.915 Z" fill="#000000" fill-rule="nonzero" fill-opacity="1" /><path clip-path="url(#clip730)" d="M1368.98 349.29 L1387.34 349.29 L1387.34 353.225 L1373.26 353.225 L1373.26 361.697 Q1374.28 361.35 1375.3 361.188 Q1376.32 361.003 1377.34 361.003 Q1383.13 361.003 1386.51 364.174 Q1389.88 367.345 1389.88 372.762 Q1389.88 378.341 1386.41 381.443 Q1382.94 384.521 1376.62 384.521 Q1374.45 384.521 1372.18 384.151 Q1369.93 383.781 1367.52 383.04 L1367.52 378.341 Q1369.61 379.475 1371.83 380.031 Q1374.05 380.586 1376.53 380.586 Q1380.53 380.586 1382.87 378.48 Q1385.21 376.373 1385.21 372.762 Q1385.21 369.151 1382.87 367.045 Q1380.53 364.938 1376.53 364.938 Q1374.65 364.938 1372.78 365.355 Q1370.93 365.771 1368.98 366.651 L1368.98 349.29 Z" fill="#000000" fill-rule="nonzero" fill-opacity="1" /><path clip-path="url(#clip730)" d="M1252.01 748.548 L1252.01 742.692 L1288.3 742.692 Q1295.11 742.692 1298.16 745.302 Q1301.22 747.88 1301.22 753.641 L1301.22 755.869 L1296.26 755.869 L1296.26 754.309 Q1296.26 750.967 1294.7 749.758 Q1293.17 748.548 1288.3 748.548 L1252.01 748.548 M1238.14 748.548 L1238.14 742.692 L1245.55 742.692 L1245.55 748.548 L1238.14 748.548 Z" fill="#000000" fill-rule="nonzero" fill-opacity="1" /><path clip-path="url(#clip730)" d="M1284.03 728.051 L1284.03 714.555 L1287.66 714.555 L1287.66 733.589 L1284.16 733.589 Q1283.17 732.507 1281.39 730.501 Q1271.68 719.552 1268.69 719.552 Q1266.59 719.552 1265.32 721.207 Q1264.01 722.862 1264.01 725.568 Q1264.01 727.223 1264.59 729.165 Q1265.13 731.106 1266.24 733.398 L1262.33 733.398 Q1261.43 730.947 1260.99 728.846 Q1260.54 726.714 1260.54 724.9 Q1260.54 720.284 1262.64 717.515 Q1264.74 714.746 1268.18 714.746 Q1272.61 714.746 1281.65 725.281 Q1283.17 727.064 1284.03 728.051 Z" fill="#000000" fill-rule="nonzero" fill-opacity="1" /><circle clip-path="url(#clip733)" cx="1468.02" cy="1156.52" r="28.8" fill="#009af9" fill-rule="evenodd" fill-opacity="1" stroke="none"/>
<circle clip-path="url(#clip733)" cx="1520.68" cy="1156.52" r="28.8" fill="#009af9" fill-rule="evenodd" fill-opacity="1" stroke="none"/>
<circle clip-path="url(#clip733)" cx="1468.02" cy="1103.85" r="28.8" fill="#009af9" fill-rule="evenodd" fill-opacity="1" stroke="none"/>
<circle clip-path="url(#clip733)" cx="1520.68" cy="1103.85" r="28.8" fill="#009af9" fill-rule="evenodd" fill-opacity="1" stroke="none"/>
<circle clip-path="url(#clip733)" cx="1573.34" cy="1156.52" r="25.2" fill="#e26f46" fill-rule="evenodd" fill-opacity="1" stroke="none"/>
<circle clip-path="url(#clip733)" cx="1573.34" cy="1103.85" r="25.2" fill="#e26f46" fill-rule="evenodd" fill-opacity="1" stroke="none"/>
<circle clip-path="url(#clip733)" cx="1468.02" cy="1051.19" r="25.2" fill="#e26f46" fill-rule="evenodd" fill-opacity="1" stroke="none"/>
<circle clip-path="url(#clip733)" cx="1520.68" cy="1051.19" r="25.2" fill="#e26f46" fill-rule="evenodd" fill-opacity="1" stroke="none"/>
<circle clip-path="url(#clip733)" cx="1626" cy="1156.52" r="21.6" fill="#3da44d" fill-rule="evenodd" fill-opacity="1" stroke="none"/>
<circle clip-path="url(#clip733)" cx="1678.67" cy="1156.52" r="21.6" fill="#3da44d" fill-rule="evenodd" fill-opacity="1" stroke="none"/>
<circle clip-path="url(#clip733)" cx="1626" cy="1103.85" r="21.6" fill="#3da44d" fill-rule="evenodd" fill-opacity="1" stroke="none"/>
<circle clip-path="url(#clip733)" cx="1678.67" cy="1103.85" r="21.6" fill="#3da44d" fill-rule="evenodd" fill-opacity="1" stroke="none"/>
<circle clip-path="url(#clip733)" cx="1573.34" cy="1051.19" r="21.6" fill="#3da44d" fill-rule="evenodd" fill-opacity="1" stroke="none"/>
<circle clip-path="url(#clip733)" cx="1468.02" cy="998.528" r="21.6" fill="#3da44d" fill-rule="evenodd" fill-opacity="1" stroke="none"/>
<circle clip-path="url(#clip733)" cx="1520.68" cy="998.528" r="21.6" fill="#3da44d" fill-rule="evenodd" fill-opacity="1" stroke="none"/>
<circle clip-path="url(#clip733)" cx="1468.02" cy="945.865" r="21.6" fill="#3da44d" fill-rule="evenodd" fill-opacity="1" stroke="none"/>
<circle clip-path="url(#clip733)" cx="1520.68" cy="945.865" r="21.6" fill="#3da44d" fill-rule="evenodd" fill-opacity="1" stroke="none"/>
<circle clip-path="url(#clip733)" cx="1731.33" cy="1156.52" r="18" fill="#c271d2" fill-rule="evenodd" fill-opacity="1" stroke="none"/>
<circle clip-path="url(#clip733)" cx="1783.99" cy="1156.52" r="18" fill="#c271d2" fill-rule="evenodd" fill-opacity="1" stroke="none"/>
<circle clip-path="url(#clip733)" cx="1836.66" cy="1156.52" r="18" fill="#c271d2" fill-rule="evenodd" fill-opacity="1" stroke="none"/>
<circle clip-path="url(#clip733)" cx="1889.32" cy="1156.52" r="18" fill="#c271d2" fill-rule="evenodd" fill-opacity="1" stroke="none"/>
<circle clip-path="url(#clip733)" cx="1731.33" cy="1103.85" r="18" fill="#c271d2" fill-rule="evenodd" fill-opacity="1" stroke="none"/>
<circle clip-path="url(#clip733)" cx="1783.99" cy="1103.85" r="18" fill="#c271d2" fill-rule="evenodd" fill-opacity="1" stroke="none"/>
<circle clip-path="url(#clip733)" cx="1836.66" cy="1103.85" r="18" fill="#c271d2" fill-rule="evenodd" fill-opacity="1" stroke="none"/>
<circle clip-path="url(#clip733)" cx="1889.32" cy="1103.85" r="18" fill="#c271d2" fill-rule="evenodd" fill-opacity="1" stroke="none"/>
<circle clip-path="url(#clip733)" cx="1626" cy="1051.19" r="18" fill="#c271d2" fill-rule="evenodd" fill-opacity="1" stroke="none"/>
<circle clip-path="url(#clip733)" cx="1678.67" cy="1051.19" r="18" fill="#c271d2" fill-rule="evenodd" fill-opacity="1" stroke="none"/>
<circle clip-path="url(#clip733)" cx="1573.34" cy="998.528" r="18" fill="#c271d2" fill-rule="evenodd" fill-opacity="1" stroke="none"/>
<circle clip-path="url(#clip733)" cx="1573.34" cy="945.865" r="18" fill="#c271d2" fill-rule="evenodd" fill-opacity="1" stroke="none"/>
<circle clip-path="url(#clip733)" cx="1468.02" cy="893.201" r="18" fill="#c271d2" fill-rule="evenodd" fill-opacity="1" stroke="none"/>
<circle clip-path="url(#clip733)" cx="1520.68" cy="893.201" r="18" fill="#c271d2" fill-rule="evenodd" fill-opacity="1" stroke="none"/>
<circle clip-path="url(#clip733)" cx="1468.02" cy="840.538" r="18" fill="#c271d2" fill-rule="evenodd" fill-opacity="1" stroke="none"/>
<circle clip-path="url(#clip733)" cx="1520.68" cy="840.538" r="18" fill="#c271d2" fill-rule="evenodd" fill-opacity="1" stroke="none"/>
<circle clip-path="url(#clip733)" cx="1468.02" cy="787.875" r="18" fill="#c271d2" fill-rule="evenodd" fill-opacity="1" stroke="none"/>
<circle clip-path="url(#clip733)" cx="1520.68" cy="787.875" r="18" fill="#c271d2" fill-rule="evenodd" fill-opacity="1" stroke="none"/>
<circle clip-path="url(#clip733)" cx="1468.02" cy="735.212" r="18" fill="#c271d2" fill-rule="evenodd" fill-opacity="1" stroke="none"/>
<circle clip-path="url(#clip733)" cx="1520.68" cy="735.212" r="18" fill="#c271d2" fill-rule="evenodd" fill-opacity="1" stroke="none"/>
<circle clip-path="url(#clip733)" cx="1941.98" cy="1156.52" r="14.4" fill="#ac8d18" fill-rule="evenodd" fill-opacity="1" stroke="none"/>
<circle clip-path="url(#clip733)" cx="1994.65" cy="1156.52" r="14.4" fill="#ac8d18" fill-rule="evenodd" fill-opacity="1" stroke="none"/>
<circle clip-path="url(#clip733)" cx="2047.31" cy="1156.52" r="14.4" fill="#ac8d18" fill-rule="evenodd" fill-opacity="1" stroke="none"/>
<circle clip-path="url(#clip733)" cx="2099.97" cy="1156.52" r="14.4" fill="#ac8d18" fill-rule="evenodd" fill-opacity="1" stroke="none"/>
<circle clip-path="url(#clip733)" cx="2152.64" cy="1156.52" r="14.4" fill="#ac8d18" fill-rule="evenodd" fill-opacity="1" stroke="none"/>
<circle clip-path="url(#clip733)" cx="2205.3" cy="1156.52" r="14.4" fill="#ac8d18" fill-rule="evenodd" fill-opacity="1" stroke="none"/>
<circle clip-path="url(#clip733)" cx="2257.96" cy="1156.52" r="14.4" fill="#ac8d18" fill-rule="evenodd" fill-opacity="1" stroke="none"/>
<circle clip-path="url(#clip733)" cx="2310.63" cy="1156.52" r="14.4" fill="#ac8d18" fill-rule="evenodd" fill-opacity="1" stroke="none"/>
<circle clip-path="url(#clip733)" cx="1941.98" cy="1103.85" r="14.4" fill="#ac8d18" fill-rule="evenodd" fill-opacity="1" stroke="none"/>
<circle clip-path="url(#clip733)" cx="1994.65" cy="1103.85" r="14.4" fill="#ac8d18" fill-rule="evenodd" fill-opacity="1" stroke="none"/>
<circle clip-path="url(#clip733)" cx="2047.31" cy="1103.85" r="14.4" fill="#ac8d18" fill-rule="evenodd" fill-opacity="1" stroke="none"/>
<circle clip-path="url(#clip733)" cx="2099.97" cy="1103.85" r="14.4" fill="#ac8d18" fill-rule="evenodd" fill-opacity="1" stroke="none"/>
<circle clip-path="url(#clip733)" cx="2152.64" cy="1103.85" r="14.4" fill="#ac8d18" fill-rule="evenodd" fill-opacity="1" stroke="none"/>
<circle clip-path="url(#clip733)" cx="2205.3" cy="1103.85" r="14.4" fill="#ac8d18" fill-rule="evenodd" fill-opacity="1" stroke="none"/>
<circle clip-path="url(#clip733)" cx="2257.96" cy="1103.85" r="14.4" fill="#ac8d18" fill-rule="evenodd" fill-opacity="1" stroke="none"/>
<circle clip-path="url(#clip733)" cx="2310.63" cy="1103.85" r="14.4" fill="#ac8d18" fill-rule="evenodd" fill-opacity="1" stroke="none"/>
<circle clip-path="url(#clip733)" cx="1731.33" cy="1051.19" r="14.4" fill="#ac8d18" fill-rule="evenodd" fill-opacity="1" stroke="none"/>
<circle clip-path="url(#clip733)" cx="1783.99" cy="1051.19" r="14.4" fill="#ac8d18" fill-rule="evenodd" fill-opacity="1" stroke="none"/>
<circle clip-path="url(#clip733)" cx="1836.66" cy="1051.19" r="14.4" fill="#ac8d18" fill-rule="evenodd" fill-opacity="1" stroke="none"/>
<circle clip-path="url(#clip733)" cx="1889.32" cy="1051.19" r="14.4" fill="#ac8d18" fill-rule="evenodd" fill-opacity="1" stroke="none"/>
<circle clip-path="url(#clip733)" cx="1626" cy="998.528" r="14.4" fill="#ac8d18" fill-rule="evenodd" fill-opacity="1" stroke="none"/>
<circle clip-path="url(#clip733)" cx="1678.67" cy="998.528" r="14.4" fill="#ac8d18" fill-rule="evenodd" fill-opacity="1" stroke="none"/>
<circle clip-path="url(#clip733)" cx="1626" cy="945.865" r="14.4" fill="#ac8d18" fill-rule="evenodd" fill-opacity="1" stroke="none"/>
<circle clip-path="url(#clip733)" cx="1678.67" cy="945.865" r="14.4" fill="#ac8d18" fill-rule="evenodd" fill-opacity="1" stroke="none"/>
<circle clip-path="url(#clip733)" cx="1573.34" cy="893.201" r="14.4" fill="#ac8d18" fill-rule="evenodd" fill-opacity="1" stroke="none"/>
<circle clip-path="url(#clip733)" cx="1573.34" cy="840.538" r="14.4" fill="#ac8d18" fill-rule="evenodd" fill-opacity="1" stroke="none"/>
<circle clip-path="url(#clip733)" cx="1573.34" cy="787.875" r="14.4" fill="#ac8d18" fill-rule="evenodd" fill-opacity="1" stroke="none"/>
<circle clip-path="url(#clip733)" cx="1573.34" cy="735.212" r="14.4" fill="#ac8d18" fill-rule="evenodd" fill-opacity="1" stroke="none"/>
<circle clip-path="url(#clip733)" cx="1468.02" cy="682.549" r="14.4" fill="#ac8d18" fill-rule="evenodd" fill-opacity="1" stroke="none"/>
<circle clip-path="url(#clip733)" cx="1520.68" cy="682.549" r="14.4" fill="#ac8d18" fill-rule="evenodd" fill-opacity="1" stroke="none"/>
<circle clip-path="url(#clip733)" cx="1468.02" cy="629.886" r="14.4" fill="#ac8d18" fill-rule="evenodd" fill-opacity="1" stroke="none"/>
<circle clip-path="url(#clip733)" cx="1520.68" cy="629.886" r="14.4" fill="#ac8d18" fill-rule="evenodd" fill-opacity="1" stroke="none"/>
<circle clip-path="url(#clip733)" cx="1468.02" cy="577.223" r="14.4" fill="#ac8d18" fill-rule="evenodd" fill-opacity="1" stroke="none"/>
<circle clip-path="url(#clip733)" cx="1520.68" cy="577.223" r="14.4" fill="#ac8d18" fill-rule="evenodd" fill-opacity="1" stroke="none"/>
<circle clip-path="url(#clip733)" cx="1468.02" cy="524.559" r="14.4" fill="#ac8d18" fill-rule="evenodd" fill-opacity="1" stroke="none"/>
<circle clip-path="url(#clip733)" cx="1520.68" cy="524.559" r="14.4" fill="#ac8d18" fill-rule="evenodd" fill-opacity="1" stroke="none"/>
<circle clip-path="url(#clip733)" cx="1468.02" cy="471.896" r="14.4" fill="#ac8d18" fill-rule="evenodd" fill-opacity="1" stroke="none"/>
<circle clip-path="url(#clip733)" cx="1520.68" cy="471.896" r="14.4" fill="#ac8d18" fill-rule="evenodd" fill-opacity="1" stroke="none"/>
<circle clip-path="url(#clip733)" cx="1468.02" cy="419.233" r="14.4" fill="#ac8d18" fill-rule="evenodd" fill-opacity="1" stroke="none"/>
<circle clip-path="url(#clip733)" cx="1520.68" cy="419.233" r="14.4" fill="#ac8d18" fill-rule="evenodd" fill-opacity="1" stroke="none"/>
<circle clip-path="url(#clip733)" cx="1468.02" cy="366.57" r="14.4" fill="#ac8d18" fill-rule="evenodd" fill-opacity="1" stroke="none"/>
<circle clip-path="url(#clip733)" cx="1520.68" cy="366.57" r="14.4" fill="#ac8d18" fill-rule="evenodd" fill-opacity="1" stroke="none"/>
<circle clip-path="url(#clip733)" cx="1468.02" cy="313.907" r="14.4" fill="#ac8d18" fill-rule="evenodd" fill-opacity="1" stroke="none"/>
<circle clip-path="url(#clip733)" cx="1520.68" cy="313.907" r="14.4" fill="#ac8d18" fill-rule="evenodd" fill-opacity="1" stroke="none"/>
</svg>
