<?xml version="1.0" encoding="utf-8"?>
<svg xmlns="http://www.w3.org/2000/svg" xmlns:xlink="http://www.w3.org/1999/xlink" width="600" height="400" viewBox="0 0 2400 1600">
<defs>
  <clipPath id="clip700">
    <rect x="0" y="0" width="2400" height="1600"/>
  </clipPath>
</defs>
<path clip-path="url(#clip700)" d="M0 1600 L2400 1600 L2400 0 L0 0  Z" fill="#ffffff" fill-rule="evenodd" fill-opacity="1"/>
<defs>
  <clipPath id="clip701">
    <rect x="480" y="0" width="1681" height="1600"/>
  </clipPath>
</defs>
<path clip-path="url(#clip700)" d="M112.177 1486.45 L2352.76 1486.45 L2352.76 47.2441 L112.177 47.2441  Z" fill="#ffffff" fill-rule="evenodd" fill-opacity="1"/>
<defs>
  <clipPath id="clip702">
    <rect x="112" y="47" width="2242" height="1440"/>
  </clipPath>
</defs>
<path clip-path="url(#clip702)" d="M1571.9 1445.72 L1911.34 1445.72 L1911.34 1106.28 L1571.9 1106.28 L1571.9 1445.72 L1571.9 1445.72  Z" fill="#009af9" fill-rule="evenodd" fill-opacity="0"/>
<polyline clip-path="url(#clip702)" style="stroke:#000000; stroke-linecap:round; stroke-linejoin:round; stroke-width:4; stroke-opacity:0.2; fill:none" points="1571.9,1445.72 1911.34,1445.72 1911.34,1106.28 1571.9,1106.28 1571.9,1445.72 "/>
<path clip-path="url(#clip702)" d="M553.597 1445.72 L893.032 1445.72 L893.032 1106.28 L553.597 1106.28 L553.597 1445.72 L553.597 1445.72  Z" fill="#e26f46" fill-rule="evenodd" fill-opacity="0"/>
<polyline clip-path="url(#clip702)" style="stroke:#000000; stroke-linecap:round; stroke-linejoin:round; stroke-width:4; stroke-opacity:1; fill:none" points="553.597,1445.72 893.032,1445.72 893.032,1106.28 553.597,1106.28 553.597,1445.72 "/>
<circle clip-path="url(#clip702)" cx="723.314" cy="1276" r="10.8" fill="#000000" fill-rule="evenodd" fill-opacity="1" stroke="none"/>
<path clip-path="url(#clip702)" d="M553.597 1106.28 L893.032 1106.28 L893.032 766.846 L553.597 766.846 L553.597 1106.28 L553.597 1106.28  Z" fill="#c271d2" fill-rule="evenodd" fill-opacity="0"/>
<polyline clip-path="url(#clip702)" style="stroke:#000000; stroke-linecap:round; stroke-linejoin:round; stroke-width:4; stroke-opacity:1; fill:none" points="553.597,1106.28 893.032,1106.28 893.032,766.846 553.597,766.846 553.597,1106.28 "/>
<circle clip-path="url(#clip702)" cx="638.456" cy="936.563" r="10.8" fill="#000000" fill-rule="evenodd" fill-opacity="1" stroke="none"/>
<circle clip-path="url(#clip702)" cx="808.173" cy="936.563" r="10.8" fill="#000000" fill-rule="evenodd" fill-opacity="1" stroke="none"/>
<path clip-path="url(#clip702)" d="M893.032 1445.72 L1232.47 1445.72 L1232.47 1106.28 L893.032 1106.28 L893.032 1445.72 L893.032 1445.72  Z" fill="#00a9ad" fill-rule="evenodd" fill-opacity="0"/>
<polyline clip-path="url(#clip702)" style="stroke:#000000; stroke-linecap:round; stroke-linejoin:round; stroke-width:4; stroke-opacity:1; fill:none" points="893.032,1445.72 1232.47,1445.72 1232.47,1106.28 893.032,1106.28 893.032,1445.72 "/>
<circle clip-path="url(#clip702)" cx="1062.75" cy="1360.86" r="10.8" fill="#000000" fill-rule="evenodd" fill-opacity="1" stroke="none"/>
<circle clip-path="url(#clip702)" cx="1062.75" cy="1191.14" r="10.8" fill="#000000" fill-rule="evenodd" fill-opacity="1" stroke="none"/>
<path clip-path="url(#clip702)" d="M553.597 766.846 L893.032 766.846 L893.032 427.411 L553.597 427.411 L553.597 766.846 L553.597 766.846  Z" fill="#c68125" fill-rule="evenodd" fill-opacity="0"/>
<polyline clip-path="url(#clip702)" style="stroke:#000000; stroke-linecap:round; stroke-linejoin:round; stroke-width:4; stroke-opacity:1; fill:none" points="553.597,766.846 893.032,766.846 893.032,427.411 553.597,427.411 553.597,766.846 "/>
<circle clip-path="url(#clip702)" cx="596.026" cy="597.129" r="10.8" fill="#000000" fill-rule="evenodd" fill-opacity="1" stroke="none"/>
<circle clip-path="url(#clip702)" cx="680.885" cy="597.129" r="10.8" fill="#000000" fill-rule="evenodd" fill-opacity="1" stroke="none"/>
<circle clip-path="url(#clip702)" cx="765.744" cy="597.129" r="10.8" fill="#000000" fill-rule="evenodd" fill-opacity="1" stroke="none"/>
<circle clip-path="url(#clip702)" cx="850.602" cy="597.129" r="10.8" fill="#000000" fill-rule="evenodd" fill-opacity="1" stroke="none"/>
<path clip-path="url(#clip702)" d="M893.032 1106.28 L1232.47 1106.28 L1232.47 766.846 L893.032 766.846 L893.032 1106.28 L893.032 1106.28  Z" fill="#8e971d" fill-rule="evenodd" fill-opacity="0"/>
<polyline clip-path="url(#clip702)" style="stroke:#000000; stroke-linecap:round; stroke-linejoin:round; stroke-width:4; stroke-opacity:1; fill:none" points="893.032,1106.28 1232.47,1106.28 1232.47,766.846 893.032,766.846 893.032,1106.28 "/>
<circle clip-path="url(#clip702)" cx="977.89" cy="1021.42" r="10.8" fill="#000000" fill-rule="evenodd" fill-opacity="1" stroke="none"/>
<circle clip-path="url(#clip702)" cx="1147.61" cy="1021.42" r="10.8" fill="#000000" fill-rule="evenodd" fill-opacity="1" stroke="none"/>
<circle clip-path="url(#clip702)" cx="977.89" cy="851.705" r="10.8" fill="#000000" fill-rule="evenodd" fill-opacity="1" stroke="none"/>
<circle clip-path="url(#clip702)" cx="1147.61" cy="851.705" r="10.8" fill="#000000" fill-rule="evenodd" fill-opacity="1" stroke="none"/>
<path clip-path="url(#clip702)" d="M1232.47 1445.72 L1571.9 1445.72 L1571.9 1106.28 L1232.47 1106.28 L1232.47 1445.72 L1232.47 1445.72  Z" fill="#9b7fe8" fill-rule="evenodd" fill-opacity="0"/>
<polyline clip-path="url(#clip702)" style="stroke:#000000; stroke-linecap:round; stroke-linejoin:round; stroke-width:4; stroke-opacity:1; fill:none" points="1232.47,1445.72 1571.9,1445.72 1571.9,1106.28 1232.47,1106.28 1232.47,1445.72 "/>
<circle clip-path="url(#clip702)" cx="1402.18" cy="1403.29" r="10.8" fill="#000000" fill-rule="evenodd" fill-opacity="1" stroke="none"/>
<circle clip-path="url(#clip702)" cx="1402.18" cy="1318.43" r="10.8" fill="#000000" fill-rule="evenodd" fill-opacity="1" stroke="none"/>
<circle clip-path="url(#clip702)" cx="1402.18" cy="1233.57" r="10.8" fill="#000000" fill-rule="evenodd" fill-opacity="1" stroke="none"/>
<circle clip-path="url(#clip702)" cx="1402.18" cy="1148.71" r="10.8" fill="#000000" fill-rule="evenodd" fill-opacity="1" stroke="none"/>
<path clip-path="url(#clip702)" d="M553.597 427.411 L893.032 427.411 L893.032 87.9763 L553.597 87.9763 L553.597 427.411 L553.597 427.411  Z" fill="#f05f73" fill-rule="evenodd" fill-opacity="0"/>
<polyline clip-path="url(#clip702)" style="stroke:#000000; stroke-linecap:round; stroke-linejoin:round; stroke-width:4; stroke-opacity:1; fill:none" points="553.597,427.411 893.032,427.411 893.032,87.9763 553.597,87.9763 553.597,427.411 "/>
<circle clip-path="url(#clip702)" cx="574.812" cy="257.694" r="10.8" fill="#000000" fill-rule="evenodd" fill-opacity="1" stroke="none"/>
<circle clip-path="url(#clip702)" cx="617.241" cy="257.694" r="10.8" fill="#000000" fill-rule="evenodd" fill-opacity="1" stroke="none"/>
<circle clip-path="url(#clip702)" cx="659.67" cy="257.694" r="10.8" fill="#000000" fill-rule="evenodd" fill-opacity="1" stroke="none"/>
<circle clip-path="url(#clip702)" cx="702.1" cy="257.694" r="10.8" fill="#000000" fill-rule="evenodd" fill-opacity="1" stroke="none"/>
<circle clip-path="url(#clip702)" cx="744.529" cy="257.694" r="10.8" fill="#000000" fill-rule="evenodd" fill-opacity="1" stroke="none"/>
<circle clip-path="url(#clip702)" cx="786.958" cy="257.694" r="10.8" fill="#000000" fill-rule="evenodd" fill-opacity="1" stroke="none"/>
<circle clip-path="url(#clip702)" cx="829.388" cy="257.694" r="10.8" fill="#000000" fill-rule="evenodd" fill-opacity="1" stroke="none"/>
<circle clip-path="url(#clip702)" cx="871.817" cy="257.694" r="10.8" fill="#000000" fill-rule="evenodd" fill-opacity="1" stroke="none"/>
<path clip-path="url(#clip702)" d="M893.032 766.846 L1232.47 766.846 L1232.47 427.411 L893.032 427.411 L893.032 766.846 L893.032 766.846  Z" fill="#6b9e32" fill-rule="evenodd" fill-opacity="0"/>
<polyline clip-path="url(#clip702)" style="stroke:#000000; stroke-linecap:round; stroke-linejoin:round; stroke-width:4; stroke-opacity:1; fill:none" points="893.032,766.846 1232.47,766.846 1232.47,427.411 893.032,427.411 893.032,766.846 "/>
<circle clip-path="url(#clip702)" cx="935.461" cy="681.987" r="10.8" fill="#000000" fill-rule="evenodd" fill-opacity="1" stroke="none"/>
<circle clip-path="url(#clip702)" cx="1020.32" cy="681.987" r="10.8" fill="#000000" fill-rule="evenodd" fill-opacity="1" stroke="none"/>
<circle clip-path="url(#clip702)" cx="1105.18" cy="681.987" r="10.8" fill="#000000" fill-rule="evenodd" fill-opacity="1" stroke="none"/>
<circle clip-path="url(#clip702)" cx="1190.04" cy="681.987" r="10.8" fill="#000000" fill-rule="evenodd" fill-opacity="1" stroke="none"/>
<circle clip-path="url(#clip702)" cx="935.461" cy="512.27" r="10.8" fill="#000000" fill-rule="evenodd" fill-opacity="1" stroke="none"/>
<circle clip-path="url(#clip702)" cx="1020.32" cy="512.27" r="10.8" fill="#000000" fill-rule="evenodd" fill-opacity="1" stroke="none"/>
<circle clip-path="url(#clip702)" cx="1105.18" cy="512.27" r="10.8" fill="#000000" fill-rule="evenodd" fill-opacity="1" stroke="none"/>
<circle clip-path="url(#clip702)" cx="1190.04" cy="512.27" r="10.8" fill="#000000" fill-rule="evenodd" fill-opacity="1" stroke="none"/>
<path clip-path="url(#clip702)" d="M1232.47 1106.28 L1571.9 1106.28 L1571.9 766.846 L1232.47 766.846 L1232.47 1106.28 L1232.47 1106.28  Z" fill="#e26f46" fill-rule="evenodd" fill-opacity="0"/>
<polyline clip-path="url(#clip702)" style="stroke:#000000; stroke-linecap:round; stroke-linejoin:round; stroke-width:4; stroke-opacity:1; fill:none" points="1232.47,1106.28 1571.9,1106.28 1571.9,766.846 1232.47,766.846 1232.47,1106.28 "/>
<circle clip-path="url(#clip702)" cx="1317.33" cy="1063.85" r="10.8" fill="#000000" fill-rule="evenodd" fill-opacity="1" stroke="none"/>
<circle clip-path="url(#clip702)" cx="1487.04" cy="1063.85" r="10.8" fill="#000000" fill-rule="evenodd" fill-opacity="1" stroke="none"/>
<circle clip-path="url(#clip702)" cx="1317.33" cy="978.993" r="10.8" fill="#000000" fill-rule="evenodd" fill-opacity="1" stroke="none"/>
<circle clip-path="url(#clip702)" cx="1487.04" cy="978.993" r="10.8" fill="#000000" fill-rule="evenodd" fill-opacity="1" stroke="none"/>
<circle clip-path="url(#clip702)" cx="1317.33" cy="894.134" r="10.8" fill="#000000" fill-rule="evenodd" fill-opacity="1" stroke="none"/>
<circle clip-path="url(#clip702)" cx="1487.04" cy="894.134" r="10.8" fill="#000000" fill-rule="evenodd" fill-opacity="1" stroke="none"/>
<circle clip-path="url(#clip702)" cx="1317.33" cy="809.275" r="10.8" fill="#000000" fill-rule="evenodd" fill-opacity="1" stroke="none"/>
<circle clip-path="url(#clip702)" cx="1487.04" cy="809.275" r="10.8" fill="#000000" fill-rule="evenodd" fill-opacity="1" stroke="none"/>
<polyline clip-path="url(#clip702)" style="stroke:#000000; stroke-linecap:round; stroke-linejoin:round; stroke-width:4; stroke-opacity:0.6; fill:none" stroke-dasharray="16, 10" points="553.597,1445.72 553.597,1445.72 "/>
<polyline clip-path="url(#clip702)" style="stroke:#000000; stroke-linecap:round; stroke-linejoin:round; stroke-width:4; stroke-opacity:0.6; fill:none" stroke-dasharray="16, 10" points="553.597,1106.28 893.032,1445.72 "/>
<polyline clip-path="url(#clip702)" style="stroke:#000000; stroke-linecap:round; stroke-linejoin:round; stroke-width:4; stroke-opacity:0.6; fill:none" stroke-dasharray="16, 10" points="553.597,766.846 1232.47,1445.72 "/>
<polyline clip-path="url(#clip702)" style="stroke:#000000; stroke-linecap:round; stroke-linejoin:round; stroke-width:4; stroke-opacity:0.6; fill:none" stroke-dasharray="16, 10" points="553.597,427.411 1571.9,1445.72 "/>
<path clip-path="url(#clip700)" d="M573.963 1112.45 Q570.352 1112.45 568.523 1116.01 Q566.718 1119.55 566.718 1126.68 Q566.718 1133.79 568.523 1137.35 Q570.352 1140.89 573.963 1140.89 Q577.597 1140.89 579.403 1137.35 Q581.231 1133.79 581.231 1126.68 Q581.231 1119.55 579.403 1116.01 Q577.597 1112.45 573.963 1112.45 M573.963 1108.74 Q579.773 1108.74 582.829 1113.35 Q585.907 1117.93 585.907 1126.68 Q585.907 1135.41 582.829 1140.01 Q579.773 1144.6 573.963 1144.6 Q568.153 1144.6 565.074 1140.01 Q562.019 1135.41 562.019 1126.68 Q562.019 1117.93 565.074 1113.35 Q568.153 1108.74 573.963 1108.74 Z" fill="#000000" fill-rule="nonzero" fill-opacity="1" /><path clip-path="url(#clip700)" d="M564.345 800.557 L571.984 800.557 L571.984 774.191 L563.674 775.858 L563.674 771.599 L571.937 769.932 L576.613 769.932 L576.613 800.557 L584.252 800.557 L584.252 804.492 L564.345 804.492 L564.345 800.557 Z" fill="#000000" fill-rule="nonzero" fill-opacity="1" /><path clip-path="url(#clip700)" d="M917.645 1125.29 Q921.002 1126.01 922.877 1128.28 Q924.775 1130.55 924.775 1133.88 Q924.775 1139 921.257 1141.8 Q917.738 1144.6 911.257 1144.6 Q909.081 1144.6 906.766 1144.16 Q904.474 1143.74 902.021 1142.89 L902.021 1138.37 Q903.965 1139.51 906.28 1140.08 Q908.595 1140.66 911.118 1140.66 Q915.516 1140.66 917.807 1138.93 Q920.122 1137.19 920.122 1133.88 Q920.122 1130.83 917.97 1129.11 Q915.84 1127.38 912.02 1127.38 L907.993 1127.38 L907.993 1123.53 L912.206 1123.53 Q915.655 1123.53 917.483 1122.17 Q919.312 1120.78 919.312 1118.19 Q919.312 1115.52 917.414 1114.11 Q915.539 1112.68 912.02 1112.68 Q910.099 1112.68 907.9 1113.09 Q905.701 1113.51 903.062 1114.39 L903.062 1110.22 Q905.724 1109.48 908.039 1109.11 Q910.377 1108.74 912.437 1108.74 Q917.761 1108.74 920.863 1111.17 Q923.965 1113.58 923.965 1117.7 Q923.965 1120.57 922.321 1122.56 Q920.678 1124.53 917.645 1125.29 Z" fill="#000000" fill-rule="nonzero" fill-opacity="1" /><path clip-path="url(#clip700)" d="M564.241 430.497 L582.597 430.497 L582.597 434.432 L568.523 434.432 L568.523 442.905 Q569.542 442.557 570.56 442.395 Q571.579 442.21 572.597 442.21 Q578.384 442.21 581.764 445.381 Q585.143 448.553 585.143 453.969 Q585.143 459.548 581.671 462.65 Q578.199 465.729 571.88 465.729 Q569.704 465.729 567.435 465.358 Q565.19 464.988 562.782 464.247 L562.782 459.548 Q564.866 460.682 567.088 461.238 Q569.31 461.793 571.787 461.793 Q575.792 461.793 578.13 459.687 Q580.468 457.58 580.468 453.969 Q580.468 450.358 578.13 448.252 Q575.792 446.145 571.787 446.145 Q569.912 446.145 568.037 446.562 Q566.185 446.979 564.241 447.858 L564.241 430.497 Z" fill="#000000" fill-rule="nonzero" fill-opacity="1" /><path clip-path="url(#clip700)" d="M903.699 803.774 L903.699 799.515 Q905.458 800.349 907.264 800.788 Q909.069 801.228 910.805 801.228 Q915.435 801.228 917.865 798.126 Q920.319 795.001 920.666 788.659 Q919.324 790.65 917.263 791.714 Q915.203 792.779 912.703 792.779 Q907.518 792.779 904.486 789.654 Q901.477 786.506 901.477 781.066 Q901.477 775.742 904.625 772.525 Q907.773 769.307 913.004 769.307 Q919 769.307 922.148 773.914 Q925.319 778.497 925.319 787.247 Q925.319 795.418 921.43 800.302 Q917.564 805.163 911.014 805.163 Q909.254 805.163 907.449 804.816 Q905.643 804.469 903.699 803.774 M913.004 789.122 Q916.152 789.122 917.981 786.969 Q919.833 784.816 919.833 781.066 Q919.833 777.339 917.981 775.187 Q916.152 773.011 913.004 773.011 Q909.856 773.011 908.004 775.187 Q906.176 777.339 906.176 781.066 Q906.176 784.816 908.004 786.969 Q909.856 789.122 913.004 789.122 Z" fill="#000000" fill-rule="nonzero" fill-opacity="1" /><path clip-path="url(#clip700)" d="M1227.84 1139.99 L1235.48 1139.99 L1235.48 1113.63 L1227.17 1115.29 L1227.17 1111.03 L1235.44 1109.37 L1240.11 1109.37 L1240.11 1139.99 L1247.75 1139.99 L1247.75 1143.93 L1227.84 1143.93 L1227.84 1139.99 Z" fill="#000000" fill-rule="nonzero" fill-opacity="1" /><path clip-path="url(#clip700)" d="M1271.36 1125.29 Q1274.72 1126.01 1276.59 1128.28 Q1278.49 1130.55 1278.49 1133.88 Q1278.49 1139 1274.97 1141.8 Q1271.46 1144.6 1264.97 1144.6 Q1262.8 1144.6 1260.48 1144.16 Q1258.19 1143.74 1255.74 1142.89 L1255.74 1138.37 Q1257.68 1139.51 1260 1140.08 Q1262.31 1140.66 1264.83 1140.66 Q1269.23 1140.66 1271.52 1138.93 Q1273.84 1137.19 1273.84 1133.88 Q1273.84 1130.83 1271.69 1129.11 Q1269.56 1127.38 1265.74 1127.38 L1261.71 1127.38 L1261.71 1123.53 L1265.92 1123.53 Q1269.37 1123.53 1271.2 1122.17 Q1273.03 1120.78 1273.03 1118.19 Q1273.03 1115.52 1271.13 1114.11 Q1269.26 1112.68 1265.74 1112.68 Q1263.82 1112.68 1261.62 1113.09 Q1259.42 1113.51 1256.78 1114.39 L1256.78 1110.22 Q1259.44 1109.48 1261.76 1109.11 Q1264.09 1108.74 1266.15 1108.74 Q1271.48 1108.74 1274.58 1111.17 Q1277.68 1113.58 1277.68 1117.7 Q1277.68 1120.57 1276.04 1122.56 Q1274.4 1124.53 1271.36 1125.29 Z" fill="#000000" fill-rule="nonzero" fill-opacity="1" /><path clip-path="url(#clip700)" d="M549.102 121.687 L556.741 121.687 L556.741 95.3216 L548.431 96.9883 L548.431 92.729 L556.694 91.0624 L561.37 91.0624 L561.37 121.687 L569.009 121.687 L569.009 125.622 L549.102 125.622 L549.102 121.687 Z" fill="#000000" fill-rule="nonzero" fill-opacity="1" /><path clip-path="url(#clip700)" d="M577.273 91.0624 L599.495 91.0624 L599.495 93.0531 L586.949 125.622 L582.065 125.622 L593.87 94.9975 L577.273 94.9975 L577.273 91.0624 Z" fill="#000000" fill-rule="nonzero" fill-opacity="1" /><path clip-path="url(#clip700)" d="M892.669 461.122 L908.988 461.122 L908.988 465.057 L887.044 465.057 L887.044 461.122 Q889.706 458.367 894.289 453.738 Q898.896 449.085 900.076 447.742 Q902.321 445.219 903.201 443.483 Q904.104 441.724 904.104 440.034 Q904.104 437.28 902.159 435.543 Q900.238 433.807 897.136 433.807 Q894.937 433.807 892.484 434.571 Q890.053 435.335 887.275 436.886 L887.275 432.164 Q890.099 431.03 892.553 430.451 Q895.007 429.872 897.044 429.872 Q902.414 429.872 905.608 432.557 Q908.803 435.243 908.803 439.733 Q908.803 441.863 907.993 443.784 Q907.206 445.682 905.099 448.275 Q904.521 448.946 901.419 452.164 Q898.317 455.358 892.669 461.122 Z" fill="#000000" fill-rule="nonzero" fill-opacity="1" /><path clip-path="url(#clip700)" d="M918.849 430.497 L937.206 430.497 L937.206 434.432 L923.132 434.432 L923.132 442.905 Q924.15 442.557 925.169 442.395 Q926.187 442.21 927.206 442.21 Q932.993 442.21 936.372 445.381 Q939.752 448.553 939.752 453.969 Q939.752 459.548 936.28 462.65 Q932.807 465.729 926.488 465.729 Q924.312 465.729 922.044 465.358 Q919.798 464.988 917.391 464.247 L917.391 459.548 Q919.474 460.682 921.696 461.238 Q923.919 461.793 926.395 461.793 Q930.4 461.793 932.738 459.687 Q935.076 457.58 935.076 453.969 Q935.076 450.358 932.738 448.252 Q930.4 446.145 926.395 446.145 Q924.52 446.145 922.645 446.562 Q920.794 446.979 918.849 447.858 L918.849 430.497 Z" fill="#000000" fill-rule="nonzero" fill-opacity="1" /><path clip-path="url(#clip700)" d="M1242 785.858 Q1245.36 786.576 1247.23 788.844 Q1249.13 791.113 1249.13 794.446 Q1249.13 799.562 1245.61 802.362 Q1242.09 805.163 1235.61 805.163 Q1233.43 805.163 1231.12 804.724 Q1228.83 804.307 1226.37 803.45 L1226.37 798.937 Q1228.32 800.071 1230.63 800.65 Q1232.95 801.228 1235.47 801.228 Q1239.87 801.228 1242.16 799.492 Q1244.48 797.756 1244.48 794.446 Q1244.48 791.39 1242.32 789.677 Q1240.19 787.941 1236.37 787.941 L1232.35 787.941 L1232.35 784.099 L1236.56 784.099 Q1240.01 784.099 1241.84 782.733 Q1243.67 781.344 1243.67 778.751 Q1243.67 776.089 1241.77 774.677 Q1239.89 773.242 1236.37 773.242 Q1234.45 773.242 1232.25 773.659 Q1230.05 774.076 1227.42 774.955 L1227.42 770.789 Q1230.08 770.048 1232.39 769.677 Q1234.73 769.307 1236.79 769.307 Q1242.12 769.307 1245.22 771.738 Q1248.32 774.145 1248.32 778.265 Q1248.32 781.136 1246.68 783.126 Q1245.03 785.094 1242 785.858 Z" fill="#000000" fill-rule="nonzero" fill-opacity="1" /><path clip-path="url(#clip700)" d="M1272.16 785.858 Q1275.52 786.576 1277.39 788.844 Q1279.29 791.113 1279.29 794.446 Q1279.29 799.562 1275.77 802.362 Q1272.25 805.163 1265.77 805.163 Q1263.6 805.163 1261.28 804.724 Q1258.99 804.307 1256.54 803.45 L1256.54 798.937 Q1258.48 800.071 1260.8 800.65 Q1263.11 801.228 1265.63 801.228 Q1270.03 801.228 1272.32 799.492 Q1274.64 797.756 1274.64 794.446 Q1274.64 791.39 1272.49 789.677 Q1270.36 787.941 1266.54 787.941 L1262.51 787.941 L1262.51 784.099 L1266.72 784.099 Q1270.17 784.099 1272 782.733 Q1273.83 781.344 1273.83 778.751 Q1273.83 776.089 1271.93 774.677 Q1270.05 773.242 1266.54 773.242 Q1264.61 773.242 1262.42 773.659 Q1260.22 774.076 1257.58 774.955 L1257.58 770.789 Q1260.24 770.048 1262.55 769.677 Q1264.89 769.307 1266.95 769.307 Q1272.28 769.307 1275.38 771.738 Q1278.48 774.145 1278.48 778.265 Q1278.48 781.136 1276.84 783.126 Q1275.19 785.094 1272.16 785.858 Z" fill="#000000" fill-rule="nonzero" fill-opacity="1" /></svg>
